<?xml version="1.0" encoding="UTF-8" standalone="no"?>
<svg width="612.069mm" height="50.0944mm"
 xmlns="http://www.w3.org/2000/svg" xmlns:xlink="http://www.w3.org/1999/xlink"  version="1.2" baseProfile="tiny">
<title>Qt SVG Document</title>
<desc>Generated with Qt</desc>
<defs>
</defs>
<g fill="none" stroke="black" stroke-width="1" fill-rule="evenodd" stroke-linecap="square" stroke-linejoin="bevel" >

<g fill="none" stroke="#000000" stroke-opacity="1" stroke-width="1" stroke-linecap="square" stroke-linejoin="bevel" transform="matrix(1,0,0,1,0,0)"
font-family="Ubuntu" font-size="11" font-weight="400" font-style="normal" 
>
</g>

<g fill="none" stroke="#000000" stroke-opacity="1" stroke-width="1" stroke-linecap="square" stroke-linejoin="bevel" transform="matrix(1,0,0,1,0,0)"
font-family="Ubuntu" font-size="11" font-weight="400" font-style="normal" 
>
</g>

<g fill="none" stroke="#000000" stroke-opacity="1" stroke-width="1" stroke-linecap="square" stroke-linejoin="bevel" transform="matrix(2,0,0,2,0.0024,142)"
font-family="Ubuntu" font-size="11" font-weight="400" font-style="normal" 
>
</g>

<g fill="#ffffff" fill-opacity="1" stroke="none" transform="matrix(2,0,0,2,0.0024,142)"
font-family="Ubuntu" font-size="11" font-weight="400" font-style="normal" 
>
<rect x="-0.0012" y="-71" width="867.352" height="71"/>
</g>

<g fill="none" stroke="#000000" stroke-opacity="1" stroke-width="1" stroke-linecap="square" stroke-linejoin="bevel" transform="matrix(2,0,0,2,0.0024,142)"
font-family="Ubuntu" font-size="11" font-weight="400" font-style="normal" 
>
</g>

<g fill="none" stroke="#000000" stroke-opacity="1" stroke-width="1" stroke-linecap="square" stroke-linejoin="bevel" transform="matrix(2,0,0,2,0.0024,142)"
font-family="Ubuntu" font-size="11" font-weight="400" font-style="normal" 
>
</g>

<g fill="none" stroke="#000000" stroke-opacity="1" stroke-width="1" stroke-linecap="square" stroke-linejoin="bevel" transform="matrix(2,0,0,2,0.0024,142)"
font-family="Ubuntu" font-size="11" font-weight="400" font-style="normal" 
>
</g>

<g fill="none" stroke="#000000" stroke-opacity="1" stroke-width="1" stroke-linecap="square" stroke-linejoin="bevel" transform="matrix(2,0,0,2,0.0024,142)"
font-family="Ubuntu" font-size="11" font-weight="400" font-style="normal" 
>
</g>

<g fill="none" stroke="#000000" stroke-opacity="1" stroke-width="1" stroke-linecap="square" stroke-linejoin="round" transform="matrix(2,0,0,2,0.0024,142)"
font-family="Ubuntu" font-size="11" font-weight="400" font-style="normal" 
>
<ellipse cx="743.86" cy="-18" rx="122.991" ry="17.5"/>
</g>

<g fill="none" stroke="#000000" stroke-opacity="1" stroke-width="1" stroke-linecap="square" stroke-linejoin="bevel" transform="matrix(2,0,0,2,0.0024,142)"
font-family="Ubuntu" font-size="11" font-weight="400" font-style="normal" 
>
</g>

<g fill="none" stroke="#000000" stroke-opacity="1" stroke-width="1" stroke-linecap="square" stroke-linejoin="bevel" transform="matrix(2,0,0,2,1310.28,92)"
font-family="Ubuntu" font-size="11" font-weight="400" font-style="normal" 
>
</g>

<g fill="none" stroke="#000000" stroke-opacity="1" stroke-width="1" stroke-linecap="square" stroke-linejoin="bevel" transform="matrix(2,0,0,2,1310.28,92)"
font-family="sans" font-size="11" font-weight="100" font-style="normal" 
>
</g>

<g fill="#000000" fill-opacity="1" stroke="#000000" stroke-opacity="1" stroke-width="1" stroke-linecap="square" stroke-linejoin="round" transform="matrix(2,0,0,2,1310.28,92)"
font-family="sans" font-size="11" font-weight="100" font-style="normal" 
>
<path vector-effect="none" fill-rule="nonzero" d="M2.96875,2.98438 L3.53125,2.98438 L0.734375,12.0156 L0.171875,12.0156 L2.96875,2.98438 M8.21875,5.40625 C8.13542,5.36458 8.02604,5.33333 7.89063,5.3125 C7.76563,5.29167 7.61458,5.28125 7.4375,5.28125 C6.82292,5.28125 6.31771,5.50521 5.92188,5.95313 C5.59896,6.31771 5.4375,6.94271 5.4375,7.82813 L5.4375,11 L4.95313,11 L4.95313,4.98438 L5.4375,4.98438 L5.4375,6.10938 C5.60417,5.78646 5.83333,5.51563 6.125,5.29688 C6.52083,4.99479 6.98958,4.84375 7.53125,4.84375 C7.67708,4.84375 7.80208,4.84896 7.90625,4.85938 C8.01042,4.85938 8.11458,4.86979 8.21875,4.89063 L8.21875,5.40625 M14.1563,7.75 L14.1563,8.0625 L9.59375,8.0625 C9.59375,9.02083 9.78125,9.69792 10.1563,10.0938 C10.5729,10.5208 11.1875,10.7344 12,10.7344 C12.2188,10.7344 12.5052,10.6875 12.8594,10.5938 C13.2135,10.5 13.5677,10.3594 13.9219,10.1719 L13.9219,10.6875 C13.5677,10.8438 13.2057,10.9609 12.8359,11.0391 C12.4661,11.1172 12.1719,11.1563 11.9531,11.1563 C11.026,11.1563 10.3281,10.9063 9.85938,10.4063 C9.34896,9.875 9.09375,9.09375 9.09375,8.0625 C9.09375,6.98958 9.32292,6.1875 9.78125,5.65625 C10.2604,5.11458 10.9271,4.84375 11.7813,4.84375 C12.5625,4.84375 13.1563,5.10417 13.5625,5.625 C13.9583,6.16667 14.1563,6.875 14.1563,7.75 M13.6563,7.64063 C13.6563,6.79688 13.4635,6.18229 13.0781,5.79688 C12.7656,5.45313 12.3333,5.28125 11.7813,5.28125 C11.1875,5.28125 10.6875,5.45833 10.2813,5.8125 C9.90625,6.14583 9.68229,6.75521 9.60938,7.64063 L13.6563,7.64063 M20.3438,5.28125 L20.3438,5.79688 C20.0521,5.61979 19.8073,5.5 19.6094,5.4375 C19.276,5.33333 18.9583,5.28125 18.6563,5.28125 C17.7917,5.28125 17.1719,5.5026 16.7969,5.94531 C16.4219,6.38802 16.2344,7.07292 16.2344,8 C16.2344,8.9375 16.4219,9.6276 16.7969,10.0703 C17.1719,10.513 17.7917,10.7344 18.6563,10.7344 C18.9479,10.7344 19.2292,10.6927 19.5,10.6094 C19.7917,10.5365 20.0729,10.4219 20.3438,10.2656 L20.3438,10.7656 C20.0729,10.901 19.7917,11 19.5,11.0625 C19.1979,11.125 18.901,11.1563 18.6094,11.1563 C17.7344,11.1563 17.0365,10.9167 16.5156,10.4375 C15.9948,9.95833 15.7344,9.14323 15.7344,7.99219 C15.7344,6.84115 15.9948,6.02604 16.5156,5.54688 C17.0365,5.07813 17.7344,4.84375 18.6094,4.84375 C18.901,4.84375 19.2083,4.88542 19.5313,4.96875 C19.8542,5.04167 20.125,5.14583 20.3438,5.28125 M25.8594,6.01563 C25.5052,5.52604 25.0208,5.28125 24.4063,5.28125 C23.7917,5.28125 23.3073,5.52604 22.9531,6.01563 C22.599,6.49479 22.4219,7.15104 22.4219,7.98438 C22.4219,8.83854 22.599,9.51042 22.9531,10 C23.3073,10.4896 23.7917,10.7344 24.4063,10.7344 C25.0208,10.7344 25.5052,10.4896 25.8594,10 C26.2135,9.5 26.3906,8.82813 26.3906,7.98438 C26.3906,7.16146 26.2135,6.50521 25.8594,6.01563 M24.4063,4.84375 C25.1667,4.84375 25.7708,5.13021 26.2188,5.70313 C26.6667,6.27604 26.8906,7.03646 26.8906,7.98438 C26.8906,8.97396 26.6667,9.75521 26.2188,10.3281 C25.7708,10.901 25.1667,11.1875 24.4063,11.1875 C23.625,11.1875 23.0104,10.901 22.5625,10.3281 C22.125,9.75521 21.9063,8.97396 21.9063,7.98438 C21.9063,7.02604 22.1302,6.26302 22.5781,5.69531 C23.026,5.1276 23.6354,4.84375 24.4063,4.84375 M32.2656,5.40625 C32.1823,5.36458 32.0729,5.33333 31.9375,5.3125 C31.8125,5.29167 31.6615,5.28125 31.4844,5.28125 C30.8698,5.28125 30.3646,5.50521 29.9688,5.95313 C29.6458,6.31771 29.4844,6.94271 29.4844,7.82813 L29.4844,11 L29,11 L29,4.98438 L29.4844,4.98438 L29.4844,6.10938 C29.651,5.78646 29.8802,5.51563 30.1719,5.29688 C30.5677,4.99479 31.0365,4.84375 31.5781,4.84375 C31.724,4.84375 31.849,4.84896 31.9531,4.85938 C32.0573,4.85938 32.1615,4.86979 32.2656,4.89063 L32.2656,5.40625 M37.5156,6.35938 L37.5156,2.64063 L37.9844,2.64063 L37.9844,11 L37.5156,11 L37.5156,9.64063 C37.2865,10.1615 37.0365,10.5156 36.7656,10.7031 C36.3698,11.0052 35.9896,11.1563 35.625,11.1563 C34.9167,11.1563 34.3255,10.8672 33.8516,10.2891 C33.3776,9.71094 33.1406,8.94792 33.1406,8 C33.1406,7.05208 33.3776,6.28906 33.8516,5.71094 C34.3255,5.13281 34.9167,4.84375 35.625,4.84375 C35.9896,4.84375 36.3698,4.98958 36.7656,5.28125 C37.0365,5.47917 37.2865,5.83854 37.5156,6.35938 M34.2813,5.90625 C33.8646,6.32292 33.6563,7.02083 33.6563,8 C33.6563,8.97917 33.8646,9.67708 34.2813,10.0938 C34.6979,10.5104 35.1354,10.7188 35.5938,10.7188 C36.0417,10.7188 36.474,10.5104 36.8906,10.0938 C37.2969,9.67708 37.5,8.97917 37.5,8 C37.5,7.02083 37.2969,6.32292 36.8906,5.90625 C36.474,5.48958 36.0417,5.28125 35.5938,5.28125 C35.1354,5.28125 34.6979,5.48958 34.2813,5.90625 M44.8438,13.1719 L44.8438,13.5938 L39.125,13.5938 L39.125,13.1719 L44.8438,13.1719 M46.375,10.5625 L48.1406,10.5625 L48.1406,3.46875 L45.9375,4.35938 L45.9375,3.85938 L48.125,2.98438 L48.6719,2.98438 L48.6719,10.5625 L50.4531,10.5625 L50.4531,11 L46.375,11 L46.375,10.5625 M53.125,2.98438 L56.9219,2.98438 L56.9219,3.42188 L53.6563,3.42188 L53.6563,6.10938 C53.8229,6.04688 53.9844,6 54.1406,5.96875 C54.2969,5.9375 54.526,5.92188 54.8281,5.92188 C55.651,5.92188 56.3021,6.15104 56.7813,6.60938 C57.2604,7.05729 57.5,7.66146 57.5,8.42188 C57.5,9.28646 57.25,9.95833 56.75,10.4375 C56.2604,10.9167 55.5677,11.1563 54.6719,11.1563 C54.3802,11.1563 54.0781,11.1302 53.7656,11.0781 C53.4531,11.026 53.1302,10.9531 52.7969,10.8594 L52.7969,10.3125 C53.0781,10.4375 53.3698,10.5365 53.6719,10.6094 C53.974,10.6719 54.2917,10.7031 54.625,10.7031 C55.3333,10.7031 55.901,10.5 56.3281,10.0938 C56.7552,9.6875 56.9688,9.13021 56.9688,8.42188 C56.9688,7.78646 56.7604,7.28646 56.3438,6.92188 C55.9271,6.54688 55.3646,6.35938 54.6563,6.35938 C54.5104,6.35938 54.2917,6.40104 54,6.48438 C53.7188,6.55729 53.4271,6.67708 53.125,6.84375 L53.125,2.98438 M60.1875,10.8281 L60.1875,10.2656 C60.4375,10.4115 60.6875,10.526 60.9375,10.6094 C61.1875,10.6823 61.4375,10.7188 61.6875,10.7188 C62.75,10.7188 63.4948,10.1979 63.9219,9.15625 C64.1198,8.67708 64.2083,7.86979 64.1875,6.73438 C64.0104,7.13021 63.7813,7.4375 63.5,7.65625 C63.1354,7.94792 62.6771,8.09375 62.125,8.09375 C61.4479,8.09375 60.8854,7.85417 60.4375,7.375 C59.9896,6.90625 59.7656,6.30208 59.7656,5.5625 C59.7656,4.73958 59.9844,4.07813 60.4219,3.57813 C60.8698,3.07813 61.4427,2.82813 62.1406,2.82813 C62.9844,2.82813 63.6302,3.1875 64.0781,3.90625 C64.526,4.61458 64.75,5.64583 64.75,7 C64.75,8.4375 64.474,9.48958 63.9219,10.1563 C63.3802,10.8229 62.6458,11.1563 61.7188,11.1563 C61.4688,11.1563 61.2188,11.1302 60.9688,11.0781 C60.7188,11.026 60.4583,10.9427 60.1875,10.8281 M60.8281,7.05469 C61.1615,7.44531 61.612,7.64063 62.1797,7.64063 C62.7474,7.64063 63.1979,7.44531 63.5313,7.05469 C63.8646,6.66406 64.0313,6.13021 64.0313,5.45313 C64.0313,4.77604 63.8646,4.24219 63.5313,3.85156 C63.1979,3.46094 62.7474,3.26563 62.1797,3.26563 C61.612,3.26563 61.1615,3.46094 60.8281,3.85156 C60.4948,4.24219 60.3281,4.77604 60.3281,5.45313 C60.3281,6.13021 60.4948,6.66406 60.8281,7.05469 M70.6719,6.92969 C70.3385,6.53906 69.888,6.34375 69.3203,6.34375 C68.7526,6.34375 68.3021,6.53906 67.9688,6.92969 C67.6354,7.32031 67.4688,7.85417 67.4688,8.53125 C67.4688,9.20833 67.6354,9.74219 67.9688,10.1328 C68.3021,10.5234 68.7526,10.7188 69.3203,10.7188 C69.888,10.7188 70.3385,10.5234 70.6719,10.1328 C71.0052,9.74219 71.1719,9.20833 71.1719,8.53125 C71.1719,7.85417 71.0052,7.32031 70.6719,6.92969 M71.3281,3.15625 L71.3281,3.73438 C71.0781,3.57813 70.8229,3.46354 70.5625,3.39063 C70.3125,3.30729 70.0625,3.26563 69.8125,3.26563 C68.75,3.26563 68.0052,3.79167 67.5781,4.84375 C67.3802,5.3125 67.2917,6.11979 67.3125,7.26563 C67.4896,6.86979 67.7188,6.5625 68,6.34375 C68.3646,6.05208 68.8281,5.90625 69.3906,5.90625 C70.0573,5.90625 70.6146,6.14063 71.0625,6.60938 C71.5104,7.08854 71.7344,7.69271 71.7344,8.42188 C71.7344,9.24479 71.5156,9.90625 71.0781,10.4063 C70.6406,10.9063 70.0677,11.1563 69.3594,11.1563 C68.5156,11.1563 67.8698,10.8021 67.4219,10.0938 C66.974,9.375 66.75,8.34375 66.75,7 C66.75,5.5625 67.026,4.50521 67.5781,3.82813 C68.1198,3.16146 68.8542,2.82813 69.7813,2.82813 C70.0313,2.82813 70.2813,2.85938 70.5313,2.92188 C70.7813,2.97396 71.0469,3.05208 71.3281,3.15625 M74.3125,10.5625 L76.0781,10.5625 L76.0781,3.46875 L73.875,4.35938 L73.875,3.85938 L76.0625,2.98438 L76.6094,2.98438 L76.6094,10.5625 L78.3906,10.5625 L78.3906,11 L74.3125,11 L74.3125,10.5625 M81.1406,10.8281 L81.1406,10.2656 C81.3906,10.4115 81.6406,10.526 81.8906,10.6094 C82.1406,10.6823 82.3906,10.7188 82.6406,10.7188 C83.7031,10.7188 84.4479,10.1979 84.875,9.15625 C85.0729,8.67708 85.1615,7.86979 85.1406,6.73438 C84.9635,7.13021 84.7344,7.4375 84.4531,7.65625 C84.0885,7.94792 83.6302,8.09375 83.0781,8.09375 C82.401,8.09375 81.8385,7.85417 81.3906,7.375 C80.9427,6.90625 80.7188,6.30208 80.7188,5.5625 C80.7188,4.73958 80.9375,4.07813 81.375,3.57813 C81.8229,3.07813 82.3958,2.82813 83.0938,2.82813 C83.9375,2.82813 84.5833,3.1875 85.0313,3.90625 C85.4792,4.61458 85.7031,5.64583 85.7031,7 C85.7031,8.4375 85.4271,9.48958 84.875,10.1563 C84.3333,10.8229 83.599,11.1563 82.6719,11.1563 C82.4219,11.1563 82.1719,11.1302 81.9219,11.0781 C81.6719,11.026 81.4115,10.9427 81.1406,10.8281 M81.7813,7.05469 C82.1146,7.44531 82.5651,7.64063 83.1328,7.64063 C83.7005,7.64063 84.151,7.44531 84.4844,7.05469 C84.8177,6.66406 84.9844,6.13021 84.9844,5.45313 C84.9844,4.77604 84.8177,4.24219 84.4844,3.85156 C84.151,3.46094 83.7005,3.26563 83.1328,3.26563 C82.5651,3.26563 82.1146,3.46094 81.7813,3.85156 C81.4479,4.24219 81.2813,4.77604 81.2813,5.45313 C81.2813,6.13021 81.4479,6.66406 81.7813,7.05469 M87.9688,10.5625 L92.5313,10.5625 L92.5313,11 L87.4063,11 L87.4063,10.4375 L89.4063,8.35938 C89.8958,7.85938 90.3438,7.39583 90.75,6.96875 C91.1146,6.57292 91.3594,6.26563 91.4844,6.04688 C91.6094,5.82813 91.6719,5.53646 91.6719,5.17188 C91.6719,4.55729 91.4844,4.0625 91.1094,3.6875 C90.8385,3.41667 90.3958,3.28125 89.7813,3.28125 C89.4167,3.28125 89.0052,3.38542 88.5469,3.59375 C88.3385,3.6875 87.9896,3.89063 87.5,4.20313 L87.5,3.64063 C87.7083,3.49479 88.0104,3.32813 88.4063,3.14063 C88.8646,2.94271 89.3177,2.83854 89.7656,2.82813 C90.4531,2.82813 91.0313,3.01042 91.5,3.375 C91.9583,3.72917 92.1875,4.3125 92.1875,5.125 C92.1875,5.45833 92.125,5.77083 92,6.0625 C91.8542,6.40625 91.6302,6.75521 91.3281,7.10938 C91.2344,7.21354 90.9479,7.51042 90.4688,8 L87.9688,10.5625 M94.5313,2.98438 L99.4063,2.98438 L99.4063,3.4375 L96.5,11 L95.9219,11 L98.8438,3.42188 L94.5313,3.42188 L94.5313,2.98438 M101.516,2.98438 L106.391,2.98438 L106.391,3.4375 L103.484,11 L102.906,11 L105.828,3.42188 L101.516,3.42188 L101.516,2.98438 M112.578,6.92969 C112.245,6.53906 111.794,6.34375 111.227,6.34375 C110.659,6.34375 110.208,6.53906 109.875,6.92969 C109.542,7.32031 109.375,7.85417 109.375,8.53125 C109.375,9.20833 109.542,9.74219 109.875,10.1328 C110.208,10.5234 110.659,10.7188 111.227,10.7188 C111.794,10.7188 112.245,10.5234 112.578,10.1328 C112.911,9.74219 113.078,9.20833 113.078,8.53125 C113.078,7.85417 112.911,7.32031 112.578,6.92969 M113.234,3.15625 L113.234,3.73438 C112.984,3.57813 112.729,3.46354 112.469,3.39063 C112.219,3.30729 111.969,3.26563 111.719,3.26563 C110.656,3.26563 109.911,3.79167 109.484,4.84375 C109.286,5.3125 109.198,6.11979 109.219,7.26563 C109.396,6.86979 109.625,6.5625 109.906,6.34375 C110.271,6.05208 110.734,5.90625 111.297,5.90625 C111.964,5.90625 112.521,6.14063 112.969,6.60938 C113.417,7.08854 113.641,7.69271 113.641,8.42188 C113.641,9.24479 113.422,9.90625 112.984,10.4063 C112.547,10.9063 111.974,11.1563 111.266,11.1563 C110.422,11.1563 109.776,10.8021 109.328,10.0938 C108.88,9.375 108.656,8.34375 108.656,7 C108.656,5.5625 108.932,4.50521 109.484,3.82813 C110.026,3.16146 110.76,2.82813 111.688,2.82813 C111.938,2.82813 112.188,2.85938 112.438,2.92188 C112.688,2.97396 112.953,3.05208 113.234,3.15625 M115.484,2.98438 L120.359,2.98438 L120.359,3.4375 L117.453,11 L116.875,11 L119.797,3.42188 L115.484,3.42188 L115.484,2.98438 M125.031,3.28125 C124.375,3.28125 123.885,3.59896 123.563,4.23438 C123.25,4.86979 123.094,5.78906 123.094,6.99219 C123.094,8.19531 123.25,9.11979 123.563,9.76563 C123.885,10.401 124.375,10.7188 125.031,10.7188 C125.708,10.7188 126.203,10.401 126.516,9.76563 C126.839,9.11979 127,8.19531 127,6.99219 C127,5.78906 126.839,4.86979 126.516,4.23438 C126.203,3.59896 125.708,3.28125 125.031,3.28125 M125.031,2.82813 C125.802,2.82813 126.411,3.14583 126.859,3.78125 C127.318,4.41667 127.547,5.48958 127.547,7 C127.547,8.51042 127.318,9.58333 126.859,10.2188 C126.411,10.8438 125.802,11.1563 125.031,11.1563 C124.281,11.1563 123.677,10.8438 123.219,10.2188 C122.771,9.58333 122.547,8.51042 122.547,7 C122.547,5.48958 122.771,4.41667 123.219,3.78125 C123.677,3.14583 124.281,2.82813 125.031,2.82813 M133.531,6.92969 C133.198,6.53906 132.747,6.34375 132.18,6.34375 C131.612,6.34375 131.161,6.53906 130.828,6.92969 C130.495,7.32031 130.328,7.85417 130.328,8.53125 C130.328,9.20833 130.495,9.74219 130.828,10.1328 C131.161,10.5234 131.612,10.7188 132.18,10.7188 C132.747,10.7188 133.198,10.5234 133.531,10.1328 C133.865,9.74219 134.031,9.20833 134.031,8.53125 C134.031,7.85417 133.865,7.32031 133.531,6.92969 M134.188,3.15625 L134.188,3.73438 C133.938,3.57813 133.682,3.46354 133.422,3.39063 C133.172,3.30729 132.922,3.26563 132.672,3.26563 C131.609,3.26563 130.865,3.79167 130.438,4.84375 C130.24,5.3125 130.151,6.11979 130.172,7.26563 C130.349,6.86979 130.578,6.5625 130.859,6.34375 C131.224,6.05208 131.688,5.90625 132.25,5.90625 C132.917,5.90625 133.474,6.14063 133.922,6.60938 C134.37,7.08854 134.594,7.69271 134.594,8.42188 C134.594,9.24479 134.375,9.90625 133.938,10.4063 C133.5,10.9063 132.927,11.1563 132.219,11.1563 C131.375,11.1563 130.729,10.8021 130.281,10.0938 C129.833,9.375 129.609,8.34375 129.609,7 C129.609,5.5625 129.885,4.50521 130.438,3.82813 C130.979,3.16146 131.714,2.82813 132.641,2.82813 C132.891,2.82813 133.141,2.85938 133.391,2.92188 C133.641,2.97396 133.906,3.05208 134.188,3.15625 M139,3.28125 C138.344,3.28125 137.854,3.59896 137.531,4.23438 C137.219,4.86979 137.063,5.78906 137.063,6.99219 C137.063,8.19531 137.219,9.11979 137.531,9.76563 C137.854,10.401 138.344,10.7188 139,10.7188 C139.677,10.7188 140.172,10.401 140.484,9.76563 C140.807,9.11979 140.969,8.19531 140.969,6.99219 C140.969,5.78906 140.807,4.86979 140.484,4.23438 C140.172,3.59896 139.677,3.28125 139,3.28125 M139,2.82813 C139.771,2.82813 140.38,3.14583 140.828,3.78125 C141.286,4.41667 141.516,5.48958 141.516,7 C141.516,8.51042 141.286,9.58333 140.828,10.2188 C140.38,10.8438 139.771,11.1563 139,11.1563 C138.25,11.1563 137.646,10.8438 137.188,10.2188 C136.74,9.58333 136.516,8.51042 136.516,7 C136.516,5.48958 136.74,4.41667 137.188,3.78125 C137.646,3.14583 138.25,2.82813 139,2.82813 M143.422,2.98438 L148.297,2.98438 L148.297,3.4375 L145.391,11 L144.813,11 L147.734,3.42188 L143.422,3.42188 L143.422,2.98438 M150.828,10.5625 L155.391,10.5625 L155.391,11 L150.266,11 L150.266,10.4375 L152.266,8.35938 C152.755,7.85938 153.203,7.39583 153.609,6.96875 C153.974,6.57292 154.219,6.26563 154.344,6.04688 C154.469,5.82813 154.531,5.53646 154.531,5.17188 C154.531,4.55729 154.344,4.0625 153.969,3.6875 C153.698,3.41667 153.255,3.28125 152.641,3.28125 C152.276,3.28125 151.865,3.38542 151.406,3.59375 C151.198,3.6875 150.849,3.89063 150.359,4.20313 L150.359,3.64063 C150.568,3.49479 150.87,3.32813 151.266,3.14063 C151.724,2.94271 152.177,2.83854 152.625,2.82813 C153.313,2.82813 153.891,3.01042 154.359,3.375 C154.818,3.72917 155.047,4.3125 155.047,5.125 C155.047,5.45833 154.984,5.77083 154.859,6.0625 C154.714,6.40625 154.49,6.75521 154.188,7.10938 C154.094,7.21354 153.807,7.51042 153.328,8 L150.828,10.5625 M160.953,6.67188 C161.38,6.77604 161.719,7.01042 161.969,7.375 C162.208,7.71875 162.328,8.15104 162.328,8.67188 C162.328,9.46354 162.102,10.0755 161.648,10.5078 C161.195,10.9401 160.469,11.1563 159.469,11.1563 C159.125,11.1563 158.776,11.1042 158.422,11 C158.068,10.8958 157.703,10.7292 157.328,10.5 L157.328,9.92188 C157.63,10.1823 157.958,10.3802 158.313,10.5156 C158.667,10.651 159.031,10.7188 159.406,10.7188 C160.177,10.7188 160.766,10.5417 161.172,10.1875 C161.578,9.84375 161.781,9.33854 161.781,8.67188 C161.781,8.13021 161.594,7.70313 161.219,7.39063 C160.844,7.08854 160.318,6.9375 159.641,6.9375 L158.703,6.9375 L158.703,6.48438 L159.688,6.48438 C160.302,6.48438 160.776,6.35938 161.109,6.10938 C161.432,5.85938 161.594,5.5 161.594,5.03125 C161.594,4.46875 161.427,4.03646 161.094,3.73438 C160.75,3.43229 160.266,3.28125 159.641,3.28125 C159.349,3.28125 159.031,3.33333 158.688,3.4375 C158.344,3.54167 157.969,3.70313 157.563,3.92188 L157.563,3.375 C157.979,3.19792 158.365,3.06771 158.719,2.98438 C159.083,2.89063 159.422,2.83854 159.734,2.82813 C160.557,2.82813 161.167,3.01563 161.563,3.39063 C161.948,3.76563 162.141,4.27604 162.141,4.92188 C162.141,5.33854 162.036,5.70833 161.828,6.03125 C161.63,6.34375 161.339,6.55729 160.953,6.67188 M168.453,6.92969 C168.12,6.53906 167.669,6.34375 167.102,6.34375 C166.534,6.34375 166.083,6.53906 165.75,6.92969 C165.417,7.32031 165.25,7.85417 165.25,8.53125 C165.25,9.20833 165.417,9.74219 165.75,10.1328 C166.083,10.5234 166.534,10.7188 167.102,10.7188 C167.669,10.7188 168.12,10.5234 168.453,10.1328 C168.786,9.74219 168.953,9.20833 168.953,8.53125 C168.953,7.85417 168.786,7.32031 168.453,6.92969 M169.109,3.15625 L169.109,3.73438 C168.859,3.57813 168.604,3.46354 168.344,3.39063 C168.094,3.30729 167.844,3.26563 167.594,3.26563 C166.531,3.26563 165.786,3.79167 165.359,4.84375 C165.161,5.3125 165.073,6.11979 165.094,7.26563 C165.271,6.86979 165.5,6.5625 165.781,6.34375 C166.146,6.05208 166.609,5.90625 167.172,5.90625 C167.839,5.90625 168.396,6.14063 168.844,6.60938 C169.292,7.08854 169.516,7.69271 169.516,8.42188 C169.516,9.24479 169.297,9.90625 168.859,10.4063 C168.422,10.9063 167.849,11.1563 167.141,11.1563 C166.297,11.1563 165.651,10.8021 165.203,10.0938 C164.755,9.375 164.531,8.34375 164.531,7 C164.531,5.5625 164.807,4.50521 165.359,3.82813 C165.901,3.16146 166.635,2.82813 167.563,2.82813 C167.813,2.82813 168.063,2.85938 168.313,2.92188 C168.563,2.97396 168.828,3.05208 169.109,3.15625 M173.953,7 C173.349,7 172.875,7.16667 172.531,7.5 C172.198,7.83333 172.031,8.28906 172.031,8.86719 C172.031,9.44531 172.198,9.90104 172.531,10.2344 C172.875,10.5677 173.346,10.7344 173.945,10.7344 C174.544,10.7344 175.016,10.5677 175.359,10.2344 C175.714,9.90104 175.891,9.44792 175.891,8.875 C175.891,8.29167 175.719,7.83333 175.375,7.5 C175.031,7.16667 174.557,7 173.953,7 M172.859,6.73438 C172.516,6.59896 172.234,6.38021 172.016,6.07813 C171.776,5.76563 171.656,5.38021 171.656,4.92188 C171.656,4.27604 171.862,3.76563 172.273,3.39063 C172.685,3.01563 173.245,2.82813 173.953,2.82813 C174.661,2.82813 175.219,3.01563 175.625,3.39063 C176.031,3.76563 176.234,4.27604 176.234,4.92188 C176.234,5.39063 176.12,5.77604 175.891,6.07813 C175.651,6.39063 175.37,6.60938 175.047,6.73438 C175.443,6.85938 175.766,7.09375 176.016,7.4375 C176.276,7.79167 176.406,8.22917 176.406,8.75 C176.406,9.52083 176.198,10.1146 175.781,10.5313 C175.354,10.9479 174.745,11.1563 173.953,11.1563 C173.161,11.1563 172.552,10.9479 172.125,10.5313 C171.698,10.1146 171.484,9.52083 171.484,8.75 C171.484,8.22917 171.615,7.79167 171.875,7.4375 C172.167,7.08333 172.495,6.84896 172.859,6.73438 M172.664,3.71094 C172.357,3.9974 172.203,4.40104 172.203,4.92188 C172.203,5.44271 172.357,5.84896 172.664,6.14063 C172.971,6.43229 173.401,6.57813 173.953,6.57813 C174.495,6.57813 174.922,6.43229 175.234,6.14063 C175.547,5.84896 175.703,5.44271 175.703,4.92188 C175.703,4.40104 175.547,4 175.234,3.71875 C174.922,3.42708 174.495,3.28125 173.953,3.28125 C173.401,3.28125 172.971,3.42448 172.664,3.71094 "/>
</g>

<g fill="none" stroke="#000000" stroke-opacity="1" stroke-width="1" stroke-linecap="square" stroke-linejoin="bevel" transform="matrix(2,0,0,2,1310.28,92)"
font-family="sans" font-size="11" font-weight="100" font-style="normal" 
>
</g>

<g fill="none" stroke="#000000" stroke-opacity="1" stroke-width="1" stroke-linecap="square" stroke-linejoin="bevel" transform="matrix(2,0,0,2,1310.28,92)"
font-family="Ubuntu" font-size="11" font-weight="400" font-style="normal" 
>
</g>

<g fill="none" stroke="#000000" stroke-opacity="1" stroke-width="1" stroke-linecap="square" stroke-linejoin="bevel" transform="matrix(2,0,0,2,0.0024,142)"
font-family="Ubuntu" font-size="11" font-weight="400" font-style="normal" 
>
</g>

<g fill="none" stroke="#000000" stroke-opacity="1" stroke-width="1" stroke-linecap="square" stroke-linejoin="bevel" transform="matrix(2,0,0,2,0.0024,142)"
font-family="Ubuntu" font-size="11" font-weight="400" font-style="normal" 
>
</g>

<g fill="none" stroke="#000000" stroke-opacity="1" stroke-width="1" stroke-linecap="square" stroke-linejoin="bevel" transform="matrix(2,0,0,2,0.0024,142)"
font-family="Ubuntu" font-size="11" font-weight="400" font-style="normal" 
>
</g>

<g fill="none" stroke="#000000" stroke-opacity="1" stroke-width="1" stroke-linecap="square" stroke-linejoin="round" transform="matrix(2,0,0,2,0.0024,142)"
font-family="Ubuntu" font-size="11" font-weight="400" font-style="normal" 
>
<ellipse cx="421.52" cy="-53" rx="70.3444" ry="17.5"/>
</g>

<g fill="none" stroke="#000000" stroke-opacity="1" stroke-width="1" stroke-linecap="square" stroke-linejoin="bevel" transform="matrix(2,0,0,2,0.0024,142)"
font-family="Ubuntu" font-size="11" font-weight="400" font-style="normal" 
>
</g>

<g fill="none" stroke="#000000" stroke-opacity="1" stroke-width="1" stroke-linecap="square" stroke-linejoin="bevel" transform="matrix(2,0,0,2,749.652,22)"
font-family="Ubuntu" font-size="11" font-weight="400" font-style="normal" 
>
</g>

<g fill="none" stroke="#000000" stroke-opacity="1" stroke-width="1" stroke-linecap="square" stroke-linejoin="bevel" transform="matrix(2,0,0,2,749.652,22)"
font-family="sans" font-size="11" font-weight="100" font-style="normal" 
>
</g>

<g fill="#000000" fill-opacity="1" stroke="#000000" stroke-opacity="1" stroke-width="1" stroke-linecap="square" stroke-linejoin="round" transform="matrix(2,0,0,2,749.652,22)"
font-family="sans" font-size="11" font-weight="100" font-style="normal" 
>
<path vector-effect="none" fill-rule="nonzero" d="M2.96875,2.98438 L3.53125,2.98438 L0.734375,12.0156 L0.171875,12.0156 L2.96875,2.98438 M8.35938,5.15625 L8.35938,5.70313 C8.00521,5.50521 7.78646,5.39583 7.70313,5.375 C7.45313,5.32292 7.14063,5.29167 6.76563,5.28125 C6.20313,5.28125 5.76042,5.39063 5.4375,5.60938 C5.1875,5.79688 5.0625,6.11458 5.0625,6.5625 C5.0625,6.875 5.18229,7.11458 5.42188,7.28125 C5.66146,7.46875 6.01042,7.61458 6.46875,7.71875 L6.8125,7.78125 C7.38542,7.90625 7.81771,8.08333 8.10938,8.3125 C8.45313,8.58333 8.63021,8.92708 8.64063,9.34375 C8.64063,9.90625 8.47396,10.349 8.14063,10.6719 C7.78646,10.9948 7.20833,11.1563 6.40625,11.1563 C5.96875,11.1563 5.63542,11.125 5.40625,11.0625 C5.125,10.9896 4.83333,10.8958 4.53125,10.7813 L4.53125,10.1563 C4.96875,10.4063 5.25,10.5521 5.375,10.5938 C5.72917,10.6875 6.08333,10.7344 6.4375,10.7344 C7.01042,10.7344 7.4375,10.6146 7.71875,10.375 C8,10.125 8.14063,9.80729 8.14063,9.42188 C8.14063,9.08854 8.04688,8.84896 7.85938,8.70313 C7.58854,8.48438 7.16146,8.30729 6.57813,8.17188 L6.23438,8.09375 C5.72396,7.96875 5.33854,7.80208 5.07813,7.59375 C4.74479,7.32292 4.57813,6.99479 4.57813,6.60938 C4.57813,5.98438 4.77865,5.53385 5.17969,5.25781 C5.58073,4.98177 6.07292,4.84375 6.65625,4.84375 C7.15625,4.84375 7.5,4.86979 7.6875,4.92188 C7.91667,4.98438 8.14063,5.0625 8.35938,5.15625 M10.6563,4.98438 L11.1563,4.98438 L11.1563,11 L10.6563,11 L10.6563,4.98438 M10.6563,2.64063 L11.1563,2.64063 L11.1563,3.3125 L10.6563,3.3125 L10.6563,2.64063 M18.0469,6.29688 C18.2344,5.80729 18.526,5.44271 18.9219,5.20313 C19.3073,4.96354 19.7604,4.84375 20.2813,4.84375 C20.8021,4.84375 21.2188,5.02604 21.5313,5.39063 C21.8542,5.75521 22.0156,6.41667 22.0156,7.375 L22.0156,11 L21.5313,11 L21.5313,7.40625 C21.5313,6.57292 21.4167,6.01042 21.1875,5.71875 C20.9583,5.42708 20.651,5.28125 20.2656,5.28125 C19.7135,5.28125 19.2292,5.44792 18.8125,5.78125 C18.3438,6.15625 18.1094,6.76042 18.1094,7.59375 L18.1094,11 L17.625,11 L17.625,7.40625 C17.625,6.60417 17.513,6.04948 17.2891,5.74219 C17.0651,5.4349 16.7552,5.28125 16.3594,5.28125 C15.8073,5.28125 15.3229,5.45313 14.9063,5.79688 C14.4375,6.16146 14.2031,6.76042 14.2031,7.59375 L14.2031,11 L13.7188,11 L13.7188,4.98438 L14.2031,4.98438 L14.2031,6.10938 C14.3802,5.71354 14.6563,5.40104 15.0313,5.17188 C15.3958,4.95313 15.849,4.84375 16.3906,4.84375 C16.7448,4.84375 17.0833,4.95833 17.4063,5.1875 C17.6563,5.375 17.8698,5.74479 18.0469,6.29688 M24.3594,8.60938 L24.3594,4.98438 L24.8438,4.98438 L24.8438,8.57813 C24.8438,9.35938 24.9688,9.90885 25.2188,10.2266 C25.4688,10.5443 25.8385,10.7031 26.3281,10.7031 C26.901,10.7031 27.3906,10.5313 27.7969,10.1875 C28.2031,9.84375 28.4063,9.24479 28.4063,8.39063 L28.4063,4.98438 L28.8906,4.98438 L28.8906,11 L28.4063,11 L28.4063,9.875 C28.2292,10.2396 27.9948,10.5156 27.7031,10.7031 C27.2865,10.9948 26.8229,11.1406 26.3125,11.1406 C25.7188,11.1406 25.2448,10.9375 24.8906,10.5313 C24.5365,10.1354 24.3594,9.49479 24.3594,8.60938 M31.3906,2.64063 L31.875,2.64063 L31.875,11 L31.3906,11 L31.3906,2.64063 M36.8438,7.60938 C36.0417,7.60938 35.4661,7.75 35.1172,8.03125 C34.7682,8.3125 34.5938,8.72396 34.5938,9.26563 C34.5938,9.79688 34.7396,10.1745 35.0313,10.3984 C35.3229,10.6224 35.6667,10.7344 36.0625,10.7344 C36.8125,10.7344 37.3542,10.4167 37.6875,9.78125 C38.0208,9.13542 38.1875,8.53125 38.1875,7.96875 L38.1875,7.60938 L36.8438,7.60938 M38.6875,7.5625 L38.6875,11 L38.1875,11 L38.1875,9.35938 C37.9167,10.1615 37.5521,10.6719 37.0938,10.8906 C36.7396,11.0677 36.3802,11.1563 36.0156,11.1563 C35.4219,11.1563 34.9531,10.9948 34.6094,10.6719 C34.2656,10.349 34.0938,9.8776 34.0938,9.25781 C34.0938,8.63802 34.3177,8.14063 34.7656,7.76563 C35.2135,7.39063 35.9427,7.20313 36.9531,7.20313 L38.1875,7.20313 L38.1875,7.10938 C38.1875,6.57813 38.0313,6.14063 37.7188,5.79688 C37.4271,5.45313 36.9323,5.28125 36.2344,5.28125 C35.8906,5.28125 35.5417,5.34375 35.1875,5.46875 C34.9583,5.55208 34.6563,5.71875 34.2813,5.96875 L34.2813,5.4375 C34.6042,5.23958 34.9063,5.09896 35.1875,5.01563 C35.5833,4.90104 35.9635,4.84375 36.3281,4.84375 C37.0469,4.84375 37.6354,5.05729 38.0938,5.48438 C38.4896,5.84896 38.6875,6.54167 38.6875,7.5625 M41.6875,3.28125 L41.6875,4.98438 L43.7188,4.98438 L43.7188,5.40625 L41.6875,5.40625 L41.6875,9.01563 C41.6875,9.47396 41.7448,9.79688 41.8594,9.98438 C42.1094,10.3802 42.4688,10.5781 42.9375,10.5781 L43.7188,10.5781 L43.7188,11 L42.9531,11 C42.4635,11 42.0469,10.8568 41.7031,10.5703 C41.3594,10.2839 41.1875,9.76563 41.1875,9.01563 L41.1875,5.40625 L40.4688,5.40625 L40.4688,4.98438 L41.1875,4.98438 L41.1875,3.28125 L41.6875,3.28125 M50.1719,7.75 L50.1719,8.0625 L45.6094,8.0625 C45.6094,9.02083 45.7969,9.69792 46.1719,10.0938 C46.5885,10.5208 47.2031,10.7344 48.0156,10.7344 C48.2344,10.7344 48.5208,10.6875 48.875,10.5938 C49.2292,10.5 49.5833,10.3594 49.9375,10.1719 L49.9375,10.6875 C49.5833,10.8438 49.2214,10.9609 48.8516,11.0391 C48.4818,11.1172 48.1875,11.1563 47.9688,11.1563 C47.0417,11.1563 46.3438,10.9063 45.875,10.4063 C45.3646,9.875 45.1094,9.09375 45.1094,8.0625 C45.1094,6.98958 45.3385,6.1875 45.7969,5.65625 C46.276,5.11458 46.9427,4.84375 47.7969,4.84375 C48.5781,4.84375 49.1719,5.10417 49.5781,5.625 C49.974,6.16667 50.1719,6.875 50.1719,7.75 M49.6719,7.64063 C49.6719,6.79688 49.4792,6.18229 49.0938,5.79688 C48.7813,5.45313 48.349,5.28125 47.7969,5.28125 C47.2031,5.28125 46.7031,5.45833 46.2969,5.8125 C45.9219,6.14583 45.6979,6.75521 45.625,7.64063 L49.6719,7.64063 M56.25,6.35938 L56.25,2.64063 L56.7188,2.64063 L56.7188,11 L56.25,11 L56.25,9.64063 C56.0208,10.1615 55.7708,10.5156 55.5,10.7031 C55.1042,11.0052 54.724,11.1563 54.3594,11.1563 C53.651,11.1563 53.0599,10.8672 52.5859,10.2891 C52.112,9.71094 51.875,8.94792 51.875,8 C51.875,7.05208 52.112,6.28906 52.5859,5.71094 C53.0599,5.13281 53.651,4.84375 54.3594,4.84375 C54.724,4.84375 55.1042,4.98958 55.5,5.28125 C55.7708,5.47917 56.0208,5.83854 56.25,6.35938 M53.0156,5.90625 C52.599,6.32292 52.3906,7.02083 52.3906,8 C52.3906,8.97917 52.599,9.67708 53.0156,10.0938 C53.4323,10.5104 53.8698,10.7188 54.3281,10.7188 C54.776,10.7188 55.2083,10.5104 55.625,10.0938 C56.0313,9.67708 56.2344,8.97917 56.2344,8 C56.2344,7.02083 56.0313,6.32292 55.625,5.90625 C55.2083,5.48958 54.776,5.28125 54.3281,5.28125 C53.8698,5.28125 53.4323,5.48958 53.0156,5.90625 M63.5781,13.1719 L63.5781,13.5938 L57.8594,13.5938 L57.8594,13.1719 L63.5781,13.1719 M65.2344,3.28125 L65.2344,4.98438 L67.2656,4.98438 L67.2656,5.40625 L65.2344,5.40625 L65.2344,9.01563 C65.2344,9.47396 65.2917,9.79688 65.4063,9.98438 C65.6563,10.3802 66.0156,10.5781 66.4844,10.5781 L67.2656,10.5781 L67.2656,11 L66.5,11 C66.0104,11 65.5938,10.8568 65.25,10.5703 C64.9063,10.2839 64.7344,9.76563 64.7344,9.01563 L64.7344,5.40625 L64.0156,5.40625 L64.0156,4.98438 L64.7344,4.98438 L64.7344,3.28125 L65.2344,3.28125 M68.9688,8.60938 L68.9688,4.98438 L69.4531,4.98438 L69.4531,8.57813 C69.4531,9.35938 69.5781,9.90885 69.8281,10.2266 C70.0781,10.5443 70.4479,10.7031 70.9375,10.7031 C71.5104,10.7031 72,10.5313 72.4063,10.1875 C72.8125,9.84375 73.0156,9.24479 73.0156,8.39063 L73.0156,4.98438 L73.5,4.98438 L73.5,11 L73.0156,11 L73.0156,9.875 C72.8385,10.2396 72.6042,10.5156 72.3125,10.7031 C71.8958,10.9948 71.4323,11.1406 70.9219,11.1406 C70.3281,11.1406 69.8542,10.9375 69.5,10.5313 C69.1458,10.1354 68.9688,9.49479 68.9688,8.60938 M79.2656,5.40625 C79.1823,5.36458 79.0729,5.33333 78.9375,5.3125 C78.8125,5.29167 78.6615,5.28125 78.4844,5.28125 C77.8698,5.28125 77.3646,5.50521 76.9688,5.95313 C76.6458,6.31771 76.4844,6.94271 76.4844,7.82813 L76.4844,11 L76,11 L76,4.98438 L76.4844,4.98438 L76.4844,6.10938 C76.651,5.78646 76.8802,5.51563 77.1719,5.29688 C77.5677,4.99479 78.0365,4.84375 78.5781,4.84375 C78.724,4.84375 78.849,4.84896 78.9531,4.85938 C79.0573,4.85938 79.1615,4.86979 79.2656,4.89063 L79.2656,5.40625 M81.0313,3.28125 L81.0313,4.98438 L83.0625,4.98438 L83.0625,5.40625 L81.0313,5.40625 L81.0313,9.01563 C81.0313,9.47396 81.0885,9.79688 81.2031,9.98438 C81.4531,10.3802 81.8125,10.5781 82.2813,10.5781 L83.0625,10.5781 L83.0625,11 L82.2969,11 C81.8073,11 81.3906,10.8568 81.0469,10.5703 C80.7031,10.2839 80.5313,9.76563 80.5313,9.01563 L80.5313,5.40625 L79.8125,5.40625 L79.8125,4.98438 L80.5313,4.98438 L80.5313,3.28125 L81.0313,3.28125 M84.8281,2.64063 L85.3125,2.64063 L85.3125,11 L84.8281,11 L84.8281,2.64063 M92.5625,7.75 L92.5625,8.0625 L88,8.0625 C88,9.02083 88.1875,9.69792 88.5625,10.0938 C88.9792,10.5208 89.5938,10.7344 90.4063,10.7344 C90.625,10.7344 90.9115,10.6875 91.2656,10.5938 C91.6198,10.5 91.974,10.3594 92.3281,10.1719 L92.3281,10.6875 C91.974,10.8438 91.612,10.9609 91.2422,11.0391 C90.8724,11.1172 90.5781,11.1563 90.3594,11.1563 C89.4323,11.1563 88.7344,10.9063 88.2656,10.4063 C87.7552,9.875 87.5,9.09375 87.5,8.0625 C87.5,6.98958 87.7292,6.1875 88.1875,5.65625 C88.6667,5.11458 89.3333,4.84375 90.1875,4.84375 C90.9688,4.84375 91.5625,5.10417 91.9688,5.625 C92.3646,6.16667 92.5625,6.875 92.5625,7.75 M92.0625,7.64063 C92.0625,6.79688 91.8698,6.18229 91.4844,5.79688 C91.1719,5.45313 90.7396,5.28125 90.1875,5.28125 C89.5938,5.28125 89.0938,5.45833 88.6875,5.8125 C88.3125,6.14583 88.0885,6.75521 88.0156,7.64063 L92.0625,7.64063"/>
</g>

<g fill="none" stroke="#000000" stroke-opacity="1" stroke-width="1" stroke-linecap="square" stroke-linejoin="bevel" transform="matrix(2,0,0,2,749.652,22)"
font-family="sans" font-size="11" font-weight="100" font-style="normal" 
>
</g>

<g fill="none" stroke="#000000" stroke-opacity="1" stroke-width="1" stroke-linecap="square" stroke-linejoin="bevel" transform="matrix(2,0,0,2,749.652,22)"
font-family="Ubuntu" font-size="11" font-weight="400" font-style="normal" 
>
</g>

<g fill="none" stroke="#000000" stroke-opacity="1" stroke-width="1" stroke-linecap="square" stroke-linejoin="bevel" transform="matrix(2,0,0,2,0.0024,142)"
font-family="Ubuntu" font-size="11" font-weight="400" font-style="normal" 
>
</g>

<g fill="none" stroke="#000000" stroke-opacity="1" stroke-width="1" stroke-linecap="square" stroke-linejoin="bevel" transform="matrix(2,0,0,2,0.0024,142)"
font-family="Ubuntu" font-size="11" font-weight="400" font-style="normal" 
>
</g>

<g fill="none" stroke="#000000" stroke-opacity="1" stroke-width="1" stroke-linecap="square" stroke-linejoin="bevel" transform="matrix(2,0,0,2,0.0024,142)"
font-family="Ubuntu" font-size="11" font-weight="400" font-style="normal" 
>
</g>

<g fill="none" stroke="#000000" stroke-opacity="1" stroke-width="1" stroke-linecap="square" stroke-linejoin="round" transform="matrix(2,0,0,2,0.0024,142)"
font-family="Ubuntu" font-size="11" font-weight="400" font-style="normal" 
>
<ellipse cx="116.34" cy="-18" rx="115.841" ry="17.5"/>
</g>

<g fill="none" stroke="#000000" stroke-opacity="1" stroke-width="1" stroke-linecap="square" stroke-linejoin="bevel" transform="matrix(2,0,0,2,0.0024,142)"
font-family="Ubuntu" font-size="11" font-weight="400" font-style="normal" 
>
</g>

<g fill="none" stroke="#000000" stroke-opacity="1" stroke-width="1" stroke-linecap="square" stroke-linejoin="bevel" transform="matrix(2,0,0,2,67.5262,92)"
font-family="Ubuntu" font-size="11" font-weight="400" font-style="normal" 
>
</g>

<g fill="none" stroke="#000000" stroke-opacity="1" stroke-width="1" stroke-linecap="square" stroke-linejoin="bevel" transform="matrix(2,0,0,2,67.5262,92)"
font-family="sans" font-size="11" font-weight="100" font-style="normal" 
>
</g>

<g fill="#000000" fill-opacity="1" stroke="#000000" stroke-opacity="1" stroke-width="1" stroke-linecap="square" stroke-linejoin="round" transform="matrix(2,0,0,2,67.5262,92)"
font-family="sans" font-size="11" font-weight="100" font-style="normal" 
>
<path vector-effect="none" fill-rule="nonzero" d="M2.96875,2.98438 L3.53125,2.98438 L0.734375,12.0156 L0.171875,12.0156 L2.96875,2.98438 M5.4375,9.64063 L5.4375,13.2813 L4.95313,13.2813 L4.95313,4.98438 L5.4375,4.98438 L5.4375,6.35938 C5.66667,5.83854 5.91146,5.47917 6.17188,5.28125 C6.57813,4.98958 6.96354,4.84375 7.32813,4.84375 C8.03646,4.84375 8.6276,5.13281 9.10156,5.71094 C9.57552,6.28906 9.8125,7.05208 9.8125,8 C9.8125,8.94792 9.57552,9.71094 9.10156,10.2891 C8.6276,10.8672 8.03646,11.1563 7.32813,11.1563 C6.96354,11.1563 6.57813,11.0052 6.17188,10.7031 C5.91146,10.5156 5.66667,10.1615 5.4375,9.64063 M8.67188,10.0938 C9.08854,9.67708 9.29688,8.97917 9.29688,8 C9.29688,7.02083 9.08854,6.32292 8.67188,5.90625 C8.25521,5.48958 7.81771,5.28125 7.35938,5.28125 C6.91146,5.28125 6.47917,5.48958 6.0625,5.90625 C5.65625,6.32292 5.45313,7.02083 5.45313,8 C5.45313,8.97917 5.65625,9.67708 6.0625,10.0938 C6.47917,10.5104 6.91146,10.7188 7.35938,10.7188 C7.81771,10.7188 8.25521,10.5104 8.67188,10.0938 M11.9219,2.64063 L12.4063,2.64063 L12.4063,11 L11.9219,11 L11.9219,2.64063 M17.375,7.60938 C16.5729,7.60938 15.9974,7.75 15.6484,8.03125 C15.2995,8.3125 15.125,8.72396 15.125,9.26563 C15.125,9.79688 15.2708,10.1745 15.5625,10.3984 C15.8542,10.6224 16.1979,10.7344 16.5938,10.7344 C17.3438,10.7344 17.8854,10.4167 18.2188,9.78125 C18.5521,9.13542 18.7188,8.53125 18.7188,7.96875 L18.7188,7.60938 L17.375,7.60938 M19.2188,7.5625 L19.2188,11 L18.7188,11 L18.7188,9.35938 C18.4479,10.1615 18.0833,10.6719 17.625,10.8906 C17.2708,11.0677 16.9115,11.1563 16.5469,11.1563 C15.9531,11.1563 15.4844,10.9948 15.1406,10.6719 C14.7969,10.349 14.625,9.8776 14.625,9.25781 C14.625,8.63802 14.849,8.14063 15.2969,7.76563 C15.7448,7.39063 16.474,7.20313 17.4844,7.20313 L18.7188,7.20313 L18.7188,7.10938 C18.7188,6.57813 18.5625,6.14063 18.25,5.79688 C17.9583,5.45313 17.4635,5.28125 16.7656,5.28125 C16.4219,5.28125 16.0729,5.34375 15.7188,5.46875 C15.4896,5.55208 15.1875,5.71875 14.8125,5.96875 L14.8125,5.4375 C15.1354,5.23958 15.4375,5.09896 15.7188,5.01563 C16.1146,4.90104 16.4948,4.84375 16.8594,4.84375 C17.5781,4.84375 18.1667,5.05729 18.625,5.48438 C19.0208,5.84896 19.2188,6.54167 19.2188,7.5625 M23.7344,11.5625 C23.5156,12.0938 23.2813,12.4635 23.0313,12.6719 C22.6979,12.9427 22.375,13.0781 22.0625,13.0781 L21.3281,13.0781 L21.3281,12.6563 L21.9531,12.6563 C22.2135,12.6563 22.4427,12.5729 22.6406,12.4063 C22.8906,12.1875 23.099,11.8698 23.2656,11.4531 L23.4375,11 L21.0469,4.98438 L21.5781,4.98438 L23.7031,10.3438 L25.8438,4.98438 L26.375,4.98438 L23.7344,11.5625 M32.5625,13.1719 L32.5625,13.5938 L26.8438,13.5938 L26.8438,13.1719 L32.5625,13.1719 M34.0938,10.5625 L35.8594,10.5625 L35.8594,3.46875 L33.6563,4.35938 L33.6563,3.85938 L35.8438,2.98438 L36.3906,2.98438 L36.3906,10.5625 L38.1719,10.5625 L38.1719,11 L34.0938,11 L34.0938,10.5625 M40.8438,2.98438 L44.6406,2.98438 L44.6406,3.42188 L41.375,3.42188 L41.375,6.10938 C41.5417,6.04688 41.7031,6 41.8594,5.96875 C42.0156,5.9375 42.2448,5.92188 42.5469,5.92188 C43.3698,5.92188 44.0208,6.15104 44.5,6.60938 C44.9792,7.05729 45.2188,7.66146 45.2188,8.42188 C45.2188,9.28646 44.9688,9.95833 44.4688,10.4375 C43.9792,10.9167 43.2865,11.1563 42.3906,11.1563 C42.099,11.1563 41.7969,11.1302 41.4844,11.0781 C41.1719,11.026 40.849,10.9531 40.5156,10.8594 L40.5156,10.3125 C40.7969,10.4375 41.0885,10.5365 41.3906,10.6094 C41.6927,10.6719 42.0104,10.7031 42.3438,10.7031 C43.0521,10.7031 43.6198,10.5 44.0469,10.0938 C44.474,9.6875 44.6875,9.13021 44.6875,8.42188 C44.6875,7.78646 44.4792,7.28646 44.0625,6.92188 C43.6458,6.54688 43.0833,6.35938 42.375,6.35938 C42.2292,6.35938 42.0104,6.40104 41.7188,6.48438 C41.4375,6.55729 41.1458,6.67708 40.8438,6.84375 L40.8438,2.98438 M47.9063,10.8281 L47.9063,10.2656 C48.1563,10.4115 48.4063,10.526 48.6563,10.6094 C48.9063,10.6823 49.1563,10.7188 49.4063,10.7188 C50.4688,10.7188 51.2135,10.1979 51.6406,9.15625 C51.8385,8.67708 51.9271,7.86979 51.9063,6.73438 C51.7292,7.13021 51.5,7.4375 51.2188,7.65625 C50.8542,7.94792 50.3958,8.09375 49.8438,8.09375 C49.1667,8.09375 48.6042,7.85417 48.1563,7.375 C47.7083,6.90625 47.4844,6.30208 47.4844,5.5625 C47.4844,4.73958 47.7031,4.07813 48.1406,3.57813 C48.5885,3.07813 49.1615,2.82813 49.8594,2.82813 C50.7031,2.82813 51.349,3.1875 51.7969,3.90625 C52.2448,4.61458 52.4688,5.64583 52.4688,7 C52.4688,8.4375 52.1927,9.48958 51.6406,10.1563 C51.099,10.8229 50.3646,11.1563 49.4375,11.1563 C49.1875,11.1563 48.9375,11.1302 48.6875,11.0781 C48.4375,11.026 48.1771,10.9427 47.9063,10.8281 M48.5469,7.05469 C48.8802,7.44531 49.3307,7.64063 49.8984,7.64063 C50.4661,7.64063 50.9167,7.44531 51.25,7.05469 C51.5833,6.66406 51.75,6.13021 51.75,5.45313 C51.75,4.77604 51.5833,4.24219 51.25,3.85156 C50.9167,3.46094 50.4661,3.26563 49.8984,3.26563 C49.3307,3.26563 48.8802,3.46094 48.5469,3.85156 C48.2135,4.24219 48.0469,4.77604 48.0469,5.45313 C48.0469,6.13021 48.2135,6.66406 48.5469,7.05469 M58.3906,6.92969 C58.0573,6.53906 57.6068,6.34375 57.0391,6.34375 C56.4714,6.34375 56.0208,6.53906 55.6875,6.92969 C55.3542,7.32031 55.1875,7.85417 55.1875,8.53125 C55.1875,9.20833 55.3542,9.74219 55.6875,10.1328 C56.0208,10.5234 56.4714,10.7188 57.0391,10.7188 C57.6068,10.7188 58.0573,10.5234 58.3906,10.1328 C58.724,9.74219 58.8906,9.20833 58.8906,8.53125 C58.8906,7.85417 58.724,7.32031 58.3906,6.92969 M59.0469,3.15625 L59.0469,3.73438 C58.7969,3.57813 58.5417,3.46354 58.2813,3.39063 C58.0313,3.30729 57.7813,3.26563 57.5313,3.26563 C56.4688,3.26563 55.724,3.79167 55.2969,4.84375 C55.099,5.3125 55.0104,6.11979 55.0313,7.26563 C55.2083,6.86979 55.4375,6.5625 55.7188,6.34375 C56.0833,6.05208 56.5469,5.90625 57.1094,5.90625 C57.776,5.90625 58.3333,6.14063 58.7813,6.60938 C59.2292,7.08854 59.4531,7.69271 59.4531,8.42188 C59.4531,9.24479 59.2344,9.90625 58.7969,10.4063 C58.3594,10.9063 57.7865,11.1563 57.0781,11.1563 C56.2344,11.1563 55.5885,10.8021 55.1406,10.0938 C54.6927,9.375 54.4688,8.34375 54.4688,7 C54.4688,5.5625 54.7448,4.50521 55.2969,3.82813 C55.8385,3.16146 56.5729,2.82813 57.5,2.82813 C57.75,2.82813 58,2.85938 58.25,2.92188 C58.5,2.97396 58.7656,3.05208 59.0469,3.15625 M62.0313,10.5625 L63.7969,10.5625 L63.7969,3.46875 L61.5938,4.35938 L61.5938,3.85938 L63.7813,2.98438 L64.3281,2.98438 L64.3281,10.5625 L66.1094,10.5625 L66.1094,11 L62.0313,11 L62.0313,10.5625 M68.8594,10.8281 L68.8594,10.2656 C69.1094,10.4115 69.3594,10.526 69.6094,10.6094 C69.8594,10.6823 70.1094,10.7188 70.3594,10.7188 C71.4219,10.7188 72.1667,10.1979 72.5938,9.15625 C72.7917,8.67708 72.8802,7.86979 72.8594,6.73438 C72.6823,7.13021 72.4531,7.4375 72.1719,7.65625 C71.8073,7.94792 71.349,8.09375 70.7969,8.09375 C70.1198,8.09375 69.5573,7.85417 69.1094,7.375 C68.6615,6.90625 68.4375,6.30208 68.4375,5.5625 C68.4375,4.73958 68.6563,4.07813 69.0938,3.57813 C69.5417,3.07813 70.1146,2.82813 70.8125,2.82813 C71.6563,2.82813 72.3021,3.1875 72.75,3.90625 C73.1979,4.61458 73.4219,5.64583 73.4219,7 C73.4219,8.4375 73.1458,9.48958 72.5938,10.1563 C72.0521,10.8229 71.3177,11.1563 70.3906,11.1563 C70.1406,11.1563 69.8906,11.1302 69.6406,11.0781 C69.3906,11.026 69.1302,10.9427 68.8594,10.8281 M69.5,7.05469 C69.8333,7.44531 70.2839,7.64063 70.8516,7.64063 C71.4193,7.64063 71.8698,7.44531 72.2031,7.05469 C72.5365,6.66406 72.7031,6.13021 72.7031,5.45313 C72.7031,4.77604 72.5365,4.24219 72.2031,3.85156 C71.8698,3.46094 71.4193,3.26563 70.8516,3.26563 C70.2839,3.26563 69.8333,3.46094 69.5,3.85156 C69.1667,4.24219 69,4.77604 69,5.45313 C69,6.13021 69.1667,6.66406 69.5,7.05469 M75.6875,10.5625 L80.25,10.5625 L80.25,11 L75.125,11 L75.125,10.4375 L77.125,8.35938 C77.6146,7.85938 78.0625,7.39583 78.4688,6.96875 C78.8333,6.57292 79.0781,6.26563 79.2031,6.04688 C79.3281,5.82813 79.3906,5.53646 79.3906,5.17188 C79.3906,4.55729 79.2031,4.0625 78.8281,3.6875 C78.5573,3.41667 78.1146,3.28125 77.5,3.28125 C77.1354,3.28125 76.724,3.38542 76.2656,3.59375 C76.0573,3.6875 75.7083,3.89063 75.2188,4.20313 L75.2188,3.64063 C75.4271,3.49479 75.7292,3.32813 76.125,3.14063 C76.5833,2.94271 77.0365,2.83854 77.4844,2.82813 C78.1719,2.82813 78.75,3.01042 79.2188,3.375 C79.6771,3.72917 79.9063,4.3125 79.9063,5.125 C79.9063,5.45833 79.8438,5.77083 79.7188,6.0625 C79.5729,6.40625 79.349,6.75521 79.0469,7.10938 C78.9531,7.21354 78.6667,7.51042 78.1875,8 L75.6875,10.5625 M82.25,2.98438 L87.125,2.98438 L87.125,3.4375 L84.2188,11 L83.6406,11 L86.5625,3.42188 L82.25,3.42188 L82.25,2.98438 M91.8281,7 C91.224,7 90.75,7.16667 90.4063,7.5 C90.0729,7.83333 89.9063,8.28906 89.9063,8.86719 C89.9063,9.44531 90.0729,9.90104 90.4063,10.2344 C90.75,10.5677 91.2214,10.7344 91.8203,10.7344 C92.4193,10.7344 92.8906,10.5677 93.2344,10.2344 C93.5885,9.90104 93.7656,9.44792 93.7656,8.875 C93.7656,8.29167 93.5938,7.83333 93.25,7.5 C92.9063,7.16667 92.4323,7 91.8281,7 M90.7344,6.73438 C90.3906,6.59896 90.1094,6.38021 89.8906,6.07813 C89.651,5.76563 89.5313,5.38021 89.5313,4.92188 C89.5313,4.27604 89.737,3.76563 90.1484,3.39063 C90.5599,3.01563 91.1198,2.82813 91.8281,2.82813 C92.5365,2.82813 93.0938,3.01563 93.5,3.39063 C93.9063,3.76563 94.1094,4.27604 94.1094,4.92188 C94.1094,5.39063 93.9948,5.77604 93.7656,6.07813 C93.526,6.39063 93.2448,6.60938 92.9219,6.73438 C93.3177,6.85938 93.6406,7.09375 93.8906,7.4375 C94.151,7.79167 94.2813,8.22917 94.2813,8.75 C94.2813,9.52083 94.0729,10.1146 93.6563,10.5313 C93.2292,10.9479 92.6198,11.1563 91.8281,11.1563 C91.0365,11.1563 90.4271,10.9479 90,10.5313 C89.5729,10.1146 89.3594,9.52083 89.3594,8.75 C89.3594,8.22917 89.4896,7.79167 89.75,7.4375 C90.0417,7.08333 90.3698,6.84896 90.7344,6.73438 M90.5391,3.71094 C90.2318,3.9974 90.0781,4.40104 90.0781,4.92188 C90.0781,5.44271 90.2318,5.84896 90.5391,6.14063 C90.8464,6.43229 91.276,6.57813 91.8281,6.57813 C92.3698,6.57813 92.7969,6.43229 93.1094,6.14063 C93.4219,5.84896 93.5781,5.44271 93.5781,4.92188 C93.5781,4.40104 93.4219,4 93.1094,3.71875 C92.7969,3.42708 92.3698,3.28125 91.8281,3.28125 C91.276,3.28125 90.8464,3.42448 90.5391,3.71094 M96.6406,10.5625 L101.203,10.5625 L101.203,11 L96.0781,11 L96.0781,10.4375 L98.0781,8.35938 C98.5677,7.85938 99.0156,7.39583 99.4219,6.96875 C99.7865,6.57292 100.031,6.26563 100.156,6.04688 C100.281,5.82813 100.344,5.53646 100.344,5.17188 C100.344,4.55729 100.156,4.0625 99.7813,3.6875 C99.5104,3.41667 99.0677,3.28125 98.4531,3.28125 C98.0885,3.28125 97.6771,3.38542 97.2188,3.59375 C97.0104,3.6875 96.6615,3.89063 96.1719,4.20313 L96.1719,3.64063 C96.3802,3.49479 96.6823,3.32813 97.0781,3.14063 C97.5365,2.94271 97.9896,2.83854 98.4375,2.82813 C99.125,2.82813 99.7031,3.01042 100.172,3.375 C100.63,3.72917 100.859,4.3125 100.859,5.125 C100.859,5.45833 100.797,5.77083 100.672,6.0625 C100.526,6.40625 100.302,6.75521 100,7.10938 C99.9063,7.21354 99.6198,7.51042 99.1406,8 L96.6406,10.5625 M103.781,10.8281 L103.781,10.2656 C104.031,10.4115 104.281,10.526 104.531,10.6094 C104.781,10.6823 105.031,10.7188 105.281,10.7188 C106.344,10.7188 107.089,10.1979 107.516,9.15625 C107.714,8.67708 107.802,7.86979 107.781,6.73438 C107.604,7.13021 107.375,7.4375 107.094,7.65625 C106.729,7.94792 106.271,8.09375 105.719,8.09375 C105.042,8.09375 104.479,7.85417 104.031,7.375 C103.583,6.90625 103.359,6.30208 103.359,5.5625 C103.359,4.73958 103.578,4.07813 104.016,3.57813 C104.464,3.07813 105.036,2.82813 105.734,2.82813 C106.578,2.82813 107.224,3.1875 107.672,3.90625 C108.12,4.61458 108.344,5.64583 108.344,7 C108.344,8.4375 108.068,9.48958 107.516,10.1563 C106.974,10.8229 106.24,11.1563 105.313,11.1563 C105.063,11.1563 104.813,11.1302 104.563,11.0781 C104.313,11.026 104.052,10.9427 103.781,10.8281 M104.422,7.05469 C104.755,7.44531 105.206,7.64063 105.773,7.64063 C106.341,7.64063 106.792,7.44531 107.125,7.05469 C107.458,6.66406 107.625,6.13021 107.625,5.45313 C107.625,4.77604 107.458,4.24219 107.125,3.85156 C106.792,3.46094 106.341,3.26563 105.773,3.26563 C105.206,3.26563 104.755,3.46094 104.422,3.85156 C104.089,4.24219 103.922,4.77604 103.922,5.45313 C103.922,6.13021 104.089,6.66406 104.422,7.05469 M110.188,2.98438 L115.063,2.98438 L115.063,3.4375 L112.156,11 L111.578,11 L114.5,3.42188 L110.188,3.42188 L110.188,2.98438 M117.594,10.5625 L122.156,10.5625 L122.156,11 L117.031,11 L117.031,10.4375 L119.031,8.35938 C119.521,7.85938 119.969,7.39583 120.375,6.96875 C120.74,6.57292 120.984,6.26563 121.109,6.04688 C121.234,5.82813 121.297,5.53646 121.297,5.17188 C121.297,4.55729 121.109,4.0625 120.734,3.6875 C120.464,3.41667 120.021,3.28125 119.406,3.28125 C119.042,3.28125 118.63,3.38542 118.172,3.59375 C117.964,3.6875 117.615,3.89063 117.125,4.20313 L117.125,3.64063 C117.333,3.49479 117.635,3.32813 118.031,3.14063 C118.49,2.94271 118.943,2.83854 119.391,2.82813 C120.078,2.82813 120.656,3.01042 121.125,3.375 C121.583,3.72917 121.813,4.3125 121.813,5.125 C121.813,5.45833 121.75,5.77083 121.625,6.0625 C121.479,6.40625 121.255,6.75521 120.953,7.10938 C120.859,7.21354 120.573,7.51042 120.094,8 L117.594,10.5625 M127.672,3.28125 L124.344,8.4375 L127.672,8.4375 L127.672,3.28125 M127.25,2.98438 L128.219,2.98438 L128.219,8.4375 L129.375,8.4375 L129.375,8.875 L128.219,8.875 L128.219,11 L127.672,11 L127.672,8.875 L123.781,8.875 L123.781,8.3125 L127.25,2.98438 M131.563,10.5625 L136.125,10.5625 L136.125,11 L131,11 L131,10.4375 L133,8.35938 C133.49,7.85938 133.938,7.39583 134.344,6.96875 C134.708,6.57292 134.953,6.26563 135.078,6.04688 C135.203,5.82813 135.266,5.53646 135.266,5.17188 C135.266,4.55729 135.078,4.0625 134.703,3.6875 C134.432,3.41667 133.99,3.28125 133.375,3.28125 C133.01,3.28125 132.599,3.38542 132.141,3.59375 C131.932,3.6875 131.583,3.89063 131.094,4.20313 L131.094,3.64063 C131.302,3.49479 131.604,3.32813 132,3.14063 C132.458,2.94271 132.911,2.83854 133.359,2.82813 C134.047,2.82813 134.625,3.01042 135.094,3.375 C135.552,3.72917 135.781,4.3125 135.781,5.125 C135.781,5.45833 135.719,5.77083 135.594,6.0625 C135.448,6.40625 135.224,6.75521 134.922,7.10938 C134.828,7.21354 134.542,7.51042 134.063,8 L131.563,10.5625 M138.859,10.5625 L140.625,10.5625 L140.625,3.46875 L138.422,4.35938 L138.422,3.85938 L140.609,2.98438 L141.156,2.98438 L141.156,10.5625 L142.938,10.5625 L142.938,11 L138.859,11 L138.859,10.5625 M147.672,3.28125 C147.016,3.28125 146.526,3.59896 146.203,4.23438 C145.891,4.86979 145.734,5.78906 145.734,6.99219 C145.734,8.19531 145.891,9.11979 146.203,9.76563 C146.526,10.401 147.016,10.7188 147.672,10.7188 C148.349,10.7188 148.844,10.401 149.156,9.76563 C149.479,9.11979 149.641,8.19531 149.641,6.99219 C149.641,5.78906 149.479,4.86979 149.156,4.23438 C148.844,3.59896 148.349,3.28125 147.672,3.28125 M147.672,2.82813 C148.443,2.82813 149.052,3.14583 149.5,3.78125 C149.958,4.41667 150.188,5.48958 150.188,7 C150.188,8.51042 149.958,9.58333 149.5,10.2188 C149.052,10.8438 148.443,11.1563 147.672,11.1563 C146.922,11.1563 146.318,10.8438 145.859,10.2188 C145.411,9.58333 145.188,8.51042 145.188,7 C145.188,5.48958 145.411,4.41667 145.859,3.78125 C146.318,3.14583 146.922,2.82813 147.672,2.82813 M156.172,6.92969 C155.839,6.53906 155.388,6.34375 154.82,6.34375 C154.253,6.34375 153.802,6.53906 153.469,6.92969 C153.135,7.32031 152.969,7.85417 152.969,8.53125 C152.969,9.20833 153.135,9.74219 153.469,10.1328 C153.802,10.5234 154.253,10.7188 154.82,10.7188 C155.388,10.7188 155.839,10.5234 156.172,10.1328 C156.505,9.74219 156.672,9.20833 156.672,8.53125 C156.672,7.85417 156.505,7.32031 156.172,6.92969 M156.828,3.15625 L156.828,3.73438 C156.578,3.57813 156.323,3.46354 156.063,3.39063 C155.813,3.30729 155.563,3.26563 155.313,3.26563 C154.25,3.26563 153.505,3.79167 153.078,4.84375 C152.88,5.3125 152.792,6.11979 152.813,7.26563 C152.99,6.86979 153.219,6.5625 153.5,6.34375 C153.865,6.05208 154.328,5.90625 154.891,5.90625 C155.557,5.90625 156.115,6.14063 156.563,6.60938 C157.01,7.08854 157.234,7.69271 157.234,8.42188 C157.234,9.24479 157.016,9.90625 156.578,10.4063 C156.141,10.9063 155.568,11.1563 154.859,11.1563 C154.016,11.1563 153.37,10.8021 152.922,10.0938 C152.474,9.375 152.25,8.34375 152.25,7 C152.25,5.5625 152.526,4.50521 153.078,3.82813 C153.62,3.16146 154.354,2.82813 155.281,2.82813 C155.531,2.82813 155.781,2.85938 156.031,2.92188 C156.281,2.97396 156.547,3.05208 156.828,3.15625 M159.578,2.98438 L163.375,2.98438 L163.375,3.42188 L160.109,3.42188 L160.109,6.10938 C160.276,6.04688 160.438,6 160.594,5.96875 C160.75,5.9375 160.979,5.92188 161.281,5.92188 C162.104,5.92188 162.755,6.15104 163.234,6.60938 C163.714,7.05729 163.953,7.66146 163.953,8.42188 C163.953,9.28646 163.703,9.95833 163.203,10.4375 C162.714,10.9167 162.021,11.1563 161.125,11.1563 C160.833,11.1563 160.531,11.1302 160.219,11.0781 C159.906,11.026 159.583,10.9531 159.25,10.8594 L159.25,10.3125 C159.531,10.4375 159.823,10.5365 160.125,10.6094 C160.427,10.6719 160.745,10.7031 161.078,10.7031 C161.786,10.7031 162.354,10.5 162.781,10.0938 C163.208,9.6875 163.422,9.13021 163.422,8.42188 C163.422,7.78646 163.214,7.28646 162.797,6.92188 C162.38,6.54688 161.818,6.35938 161.109,6.35938 C160.964,6.35938 160.745,6.40104 160.453,6.48438 C160.172,6.55729 159.88,6.67708 159.578,6.84375 L159.578,2.98438"/>
</g>

<g fill="none" stroke="#000000" stroke-opacity="1" stroke-width="1" stroke-linecap="square" stroke-linejoin="bevel" transform="matrix(2,0,0,2,67.5262,92)"
font-family="sans" font-size="11" font-weight="100" font-style="normal" 
>
</g>

<g fill="none" stroke="#000000" stroke-opacity="1" stroke-width="1" stroke-linecap="square" stroke-linejoin="bevel" transform="matrix(2,0,0,2,67.5262,92)"
font-family="Ubuntu" font-size="11" font-weight="400" font-style="normal" 
>
</g>

<g fill="none" stroke="#000000" stroke-opacity="1" stroke-width="1" stroke-linecap="square" stroke-linejoin="bevel" transform="matrix(2,0,0,2,0.0024,142)"
font-family="Ubuntu" font-size="11" font-weight="400" font-style="normal" 
>
</g>

<g fill="none" stroke="#000000" stroke-opacity="1" stroke-width="1" stroke-linecap="square" stroke-linejoin="bevel" transform="matrix(2,0,0,2,0.0024,142)"
font-family="Ubuntu" font-size="11" font-weight="400" font-style="normal" 
>
</g>

<g fill="none" stroke="#000000" stroke-opacity="1" stroke-width="1" stroke-linecap="square" stroke-linejoin="bevel" transform="matrix(2,0,0,2,0.0024,142)"
font-family="Ubuntu" font-size="11" font-weight="400" font-style="normal" 
>
</g>

<g fill="none" stroke="#000000" stroke-opacity="1" stroke-width="1" stroke-linecap="square" stroke-linejoin="round" transform="matrix(2,0,0,2,0.0024,142)"
font-family="Ubuntu" font-size="11" font-weight="400" font-style="normal" 
>
<path vector-effect="none" fill-rule="evenodd" d="M229.85,-13.926 C268.22,-12.731 311.3,-11.588 350.68,-11 C413.64,-10.06 429.4,-10.124 492.37,-11 C531.56,-11.545 574.17,-12.568 612.99,-13.667 "/>
</g>

<g fill="none" stroke="#000000" stroke-opacity="1" stroke-width="1" stroke-linecap="square" stroke-linejoin="bevel" transform="matrix(2,0,0,2,0.0024,142)"
font-family="Ubuntu" font-size="11" font-weight="400" font-style="normal" 
>
</g>

<g fill="none" stroke="#000000" stroke-opacity="1" stroke-width="1" stroke-linecap="square" stroke-linejoin="bevel" transform="matrix(2,0,0,2,742.98,91)"
font-family="Ubuntu" font-size="11" font-weight="400" font-style="normal" 
>
</g>

<g fill="none" stroke="#000000" stroke-opacity="1" stroke-width="1" stroke-linecap="square" stroke-linejoin="bevel" transform="matrix(2,0,0,2,742.98,91)"
font-family="sans" font-size="11" font-weight="100" font-style="normal" 
>
</g>

<g fill="#000000" fill-opacity="1" stroke="#000000" stroke-opacity="1" stroke-width="1" stroke-linecap="square" stroke-linejoin="round" transform="matrix(2,0,0,2,742.98,91)"
font-family="sans" font-size="11" font-weight="100" font-style="normal" 
>
<path vector-effect="none" fill-rule="nonzero" d="M2.96875,2.98438 L3.53125,2.98438 L0.734375,12.0156 L0.171875,12.0156 L2.96875,2.98438 M9.28125,6.29688 C9.46875,5.80729 9.76042,5.44271 10.1563,5.20313 C10.5417,4.96354 10.9948,4.84375 11.5156,4.84375 C12.0365,4.84375 12.4531,5.02604 12.7656,5.39063 C13.0885,5.75521 13.25,6.41667 13.25,7.375 L13.25,11 L12.7656,11 L12.7656,7.40625 C12.7656,6.57292 12.651,6.01042 12.4219,5.71875 C12.1927,5.42708 11.8854,5.28125 11.5,5.28125 C10.9479,5.28125 10.4635,5.44792 10.0469,5.78125 C9.57813,6.15625 9.34375,6.76042 9.34375,7.59375 L9.34375,11 L8.85938,11 L8.85938,7.40625 C8.85938,6.60417 8.7474,6.04948 8.52344,5.74219 C8.29948,5.4349 7.98958,5.28125 7.59375,5.28125 C7.04167,5.28125 6.55729,5.45313 6.14063,5.79688 C5.67188,6.16146 5.4375,6.76042 5.4375,7.59375 L5.4375,11 L4.95313,11 L4.95313,4.98438 L5.4375,4.98438 L5.4375,6.10938 C5.61458,5.71354 5.89063,5.40104 6.26563,5.17188 C6.63021,4.95313 7.08333,4.84375 7.625,4.84375 C7.97917,4.84375 8.31771,4.95833 8.64063,5.1875 C8.89063,5.375 9.10417,5.74479 9.28125,6.29688 M17.6875,11.5625 C17.4688,12.0938 17.2344,12.4635 16.9844,12.6719 C16.651,12.9427 16.3281,13.0781 16.0156,13.0781 L15.2813,13.0781 L15.2813,12.6563 L15.9063,12.6563 C16.1667,12.6563 16.3958,12.5729 16.5938,12.4063 C16.8438,12.1875 17.0521,11.8698 17.2188,11.4531 L17.3906,11 L15,4.98438 L15.5313,4.98438 L17.6563,10.3438 L19.7969,4.98438 L20.3281,4.98438 L17.6875,11.5625 M22.6719,3.28125 L22.6719,4.98438 L24.7031,4.98438 L24.7031,5.40625 L22.6719,5.40625 L22.6719,9.01563 C22.6719,9.47396 22.7292,9.79688 22.8438,9.98438 C23.0938,10.3802 23.4531,10.5781 23.9219,10.5781 L24.7031,10.5781 L24.7031,11 L23.9375,11 C23.4479,11 23.0313,10.8568 22.6875,10.5703 C22.3438,10.2839 22.1719,9.76563 22.1719,9.01563 L22.1719,5.40625 L21.4531,5.40625 L21.4531,4.98438 L22.1719,4.98438 L22.1719,3.28125 L22.6719,3.28125 M26.4063,8.60938 L26.4063,4.98438 L26.8906,4.98438 L26.8906,8.57813 C26.8906,9.35938 27.0156,9.90885 27.2656,10.2266 C27.5156,10.5443 27.8854,10.7031 28.375,10.7031 C28.9479,10.7031 29.4375,10.5313 29.8438,10.1875 C30.25,9.84375 30.4531,9.24479 30.4531,8.39063 L30.4531,4.98438 L30.9375,4.98438 L30.9375,11 L30.4531,11 L30.4531,9.875 C30.276,10.2396 30.0417,10.5156 29.75,10.7031 C29.3333,10.9948 28.8698,11.1406 28.3594,11.1406 C27.7656,11.1406 27.2917,10.9375 26.9375,10.5313 C26.5833,10.1354 26.4063,9.49479 26.4063,8.60938 M36.7031,5.40625 C36.6198,5.36458 36.5104,5.33333 36.375,5.3125 C36.25,5.29167 36.099,5.28125 35.9219,5.28125 C35.3073,5.28125 34.8021,5.50521 34.4063,5.95313 C34.0833,6.31771 33.9219,6.94271 33.9219,7.82813 L33.9219,11 L33.4375,11 L33.4375,4.98438 L33.9219,4.98438 L33.9219,6.10938 C34.0885,5.78646 34.3177,5.51563 34.6094,5.29688 C35.0052,4.99479 35.474,4.84375 36.0156,4.84375 C36.1615,4.84375 36.2865,4.84896 36.3906,4.85938 C36.4948,4.85938 36.599,4.86979 36.7031,4.89063 L36.7031,5.40625 M38.4688,3.28125 L38.4688,4.98438 L40.5,4.98438 L40.5,5.40625 L38.4688,5.40625 L38.4688,9.01563 C38.4688,9.47396 38.526,9.79688 38.6406,9.98438 C38.8906,10.3802 39.25,10.5781 39.7188,10.5781 L40.5,10.5781 L40.5,11 L39.7344,11 C39.2448,11 38.8281,10.8568 38.4844,10.5703 C38.1406,10.2839 37.9688,9.76563 37.9688,9.01563 L37.9688,5.40625 L37.25,5.40625 L37.25,4.98438 L37.9688,4.98438 L37.9688,3.28125 L38.4688,3.28125 M42.2656,2.64063 L42.75,2.64063 L42.75,11 L42.2656,11 L42.2656,2.64063 M50,7.75 L50,8.0625 L45.4375,8.0625 C45.4375,9.02083 45.625,9.69792 46,10.0938 C46.4167,10.5208 47.0313,10.7344 47.8438,10.7344 C48.0625,10.7344 48.349,10.6875 48.7031,10.5938 C49.0573,10.5 49.4115,10.3594 49.7656,10.1719 L49.7656,10.6875 C49.4115,10.8438 49.0495,10.9609 48.6797,11.0391 C48.3099,11.1172 48.0156,11.1563 47.7969,11.1563 C46.8698,11.1563 46.1719,10.9063 45.7031,10.4063 C45.1927,9.875 44.9375,9.09375 44.9375,8.0625 C44.9375,6.98958 45.1667,6.1875 45.625,5.65625 C46.1042,5.11458 46.7708,4.84375 47.625,4.84375 C48.4063,4.84375 49,5.10417 49.4063,5.625 C49.8021,6.16667 50,6.875 50,7.75 M49.5,7.64063 C49.5,6.79688 49.3073,6.18229 48.9219,5.79688 C48.6094,5.45313 48.1771,5.28125 47.625,5.28125 C47.0313,5.28125 46.5313,5.45833 46.125,5.8125 C45.75,6.14583 45.526,6.75521 45.4531,7.64063 L49.5,7.64063 M53.7969,2.98438 L54.3594,2.98438 L51.5625,12.0156 L51,12.0156 L53.7969,2.98438 M59.8906,5.28125 L59.8906,5.79688 C59.599,5.61979 59.3542,5.5 59.1563,5.4375 C58.8229,5.33333 58.5052,5.28125 58.2031,5.28125 C57.3385,5.28125 56.7188,5.5026 56.3438,5.94531 C55.9688,6.38802 55.7813,7.07292 55.7813,8 C55.7813,8.9375 55.9688,9.6276 56.3438,10.0703 C56.7188,10.513 57.3385,10.7344 58.2031,10.7344 C58.4948,10.7344 58.776,10.6927 59.0469,10.6094 C59.3385,10.5365 59.6198,10.4219 59.8906,10.2656 L59.8906,10.7656 C59.6198,10.901 59.3385,11 59.0469,11.0625 C58.7448,11.125 58.4479,11.1563 58.1563,11.1563 C57.2813,11.1563 56.5833,10.9167 56.0625,10.4375 C55.5417,9.95833 55.2813,9.14323 55.2813,7.99219 C55.2813,6.84115 55.5417,6.02604 56.0625,5.54688 C56.5833,5.07813 57.2813,4.84375 58.1563,4.84375 C58.4479,4.84375 58.7552,4.88542 59.0781,4.96875 C59.401,5.04167 59.6719,5.14583 59.8906,5.28125 M66.1563,6.29688 C66.3438,5.80729 66.6354,5.44271 67.0313,5.20313 C67.4167,4.96354 67.8698,4.84375 68.3906,4.84375 C68.9115,4.84375 69.3281,5.02604 69.6406,5.39063 C69.9635,5.75521 70.125,6.41667 70.125,7.375 L70.125,11 L69.6406,11 L69.6406,7.40625 C69.6406,6.57292 69.526,6.01042 69.2969,5.71875 C69.0677,5.42708 68.7604,5.28125 68.375,5.28125 C67.8229,5.28125 67.3385,5.44792 66.9219,5.78125 C66.4531,6.15625 66.2188,6.76042 66.2188,7.59375 L66.2188,11 L65.7344,11 L65.7344,7.40625 C65.7344,6.60417 65.6224,6.04948 65.3984,5.74219 C65.1745,5.4349 64.8646,5.28125 64.4688,5.28125 C63.9167,5.28125 63.4323,5.45313 63.0156,5.79688 C62.5469,6.16146 62.3125,6.76042 62.3125,7.59375 L62.3125,11 L61.8281,11 L61.8281,4.98438 L62.3125,4.98438 L62.3125,6.10938 C62.4896,5.71354 62.7656,5.40104 63.1406,5.17188 C63.5052,4.95313 63.9583,4.84375 64.5,4.84375 C64.8542,4.84375 65.1927,4.95833 65.5156,5.1875 C65.7656,5.375 65.9792,5.74479 66.1563,6.29688 M76.5313,6.35938 L76.5313,2.64063 L77,2.64063 L77,11 L76.5313,11 L76.5313,9.64063 C76.3021,10.1615 76.0521,10.5156 75.7813,10.7031 C75.3854,11.0052 75.0052,11.1563 74.6406,11.1563 C73.9323,11.1563 73.3411,10.8672 72.8672,10.2891 C72.3932,9.71094 72.1563,8.94792 72.1563,8 C72.1563,7.05208 72.3932,6.28906 72.8672,5.71094 C73.3411,5.13281 73.9323,4.84375 74.6406,4.84375 C75.0052,4.84375 75.3854,4.98958 75.7813,5.28125 C76.0521,5.47917 76.3021,5.83854 76.5313,6.35938 M73.2969,5.90625 C72.8802,6.32292 72.6719,7.02083 72.6719,8 C72.6719,8.97917 72.8802,9.67708 73.2969,10.0938 C73.7135,10.5104 74.151,10.7188 74.6094,10.7188 C75.0573,10.7188 75.4896,10.5104 75.9063,10.0938 C76.3125,9.67708 76.5156,8.97917 76.5156,8 C76.5156,7.02083 76.3125,6.32292 75.9063,5.90625 C75.4896,5.48958 75.0573,5.28125 74.6094,5.28125 C74.151,5.28125 73.7135,5.48958 73.2969,5.90625 M83.8594,13.1719 L83.8594,13.5938 L78.1406,13.5938 L78.1406,13.1719 L83.8594,13.1719 M84.4531,4.98438 L84.9688,4.98438 L87,10.4531 L89.0469,4.98438 L89.5625,4.98438 L87.3281,11 L86.6875,11 L84.4531,4.98438 M96.1875,7.75 L96.1875,8.0625 L91.625,8.0625 C91.625,9.02083 91.8125,9.69792 92.1875,10.0938 C92.6042,10.5208 93.2188,10.7344 94.0313,10.7344 C94.25,10.7344 94.5365,10.6875 94.8906,10.5938 C95.2448,10.5 95.599,10.3594 95.9531,10.1719 L95.9531,10.6875 C95.599,10.8438 95.237,10.9609 94.8672,11.0391 C94.4974,11.1172 94.2031,11.1563 93.9844,11.1563 C93.0573,11.1563 92.3594,10.9063 91.8906,10.4063 C91.3802,9.875 91.125,9.09375 91.125,8.0625 C91.125,6.98958 91.3542,6.1875 91.8125,5.65625 C92.2917,5.11458 92.9583,4.84375 93.8125,4.84375 C94.5938,4.84375 95.1875,5.10417 95.5938,5.625 C95.9896,6.16667 96.1875,6.875 96.1875,7.75 M95.6875,7.64063 C95.6875,6.79688 95.4948,6.18229 95.1094,5.79688 C94.7969,5.45313 94.3646,5.28125 93.8125,5.28125 C93.2188,5.28125 92.7188,5.45833 92.3125,5.8125 C91.9375,6.14583 91.7135,6.75521 91.6406,7.64063 L95.6875,7.64063 M98.2656,2.64063 L98.75,2.64063 L98.75,11 L98.2656,11 L98.2656,2.64063"/>
</g>

<g fill="none" stroke="#000000" stroke-opacity="1" stroke-width="1" stroke-linecap="square" stroke-linejoin="bevel" transform="matrix(2,0,0,2,742.98,91)"
font-family="sans" font-size="11" font-weight="100" font-style="normal" 
>
</g>

<g fill="none" stroke="#000000" stroke-opacity="1" stroke-width="1" stroke-linecap="square" stroke-linejoin="bevel" transform="matrix(2,0,0,2,742.98,91)"
font-family="Ubuntu" font-size="11" font-weight="400" font-style="normal" 
>
</g>

<g fill="none" stroke="#000000" stroke-opacity="1" stroke-width="1" stroke-linecap="square" stroke-linejoin="bevel" transform="matrix(2,0,0,2,0.0024,142)"
font-family="Ubuntu" font-size="11" font-weight="400" font-style="normal" 
>
</g>

<g fill="#000000" fill-opacity="1" stroke="#000000" stroke-opacity="1" stroke-width="1" stroke-linecap="square" stroke-linejoin="round" transform="matrix(2,0,0,2,0.0024,142)"
font-family="Ubuntu" font-size="11" font-weight="400" font-style="normal" 
>
<path vector-effect="none" fill-rule="evenodd" d="M612.99,-13.667 L613.094,-10.055 L623.31,-13.963 L612.886,-17.279 L612.99,-13.667"/>
</g>

<g fill="none" stroke="#000000" stroke-opacity="1" stroke-width="1" stroke-linecap="square" stroke-linejoin="bevel" transform="matrix(2,0,0,2,0.0024,142)"
font-family="Ubuntu" font-size="11" font-weight="400" font-style="normal" 
>
</g>

<g fill="none" stroke="#000000" stroke-opacity="1" stroke-width="1" stroke-linecap="square" stroke-linejoin="bevel" transform="matrix(2,0,0,2,0.0024,142)"
font-family="Ubuntu" font-size="11" font-weight="400" font-style="normal" 
>
</g>

<g fill="none" stroke="#000000" stroke-opacity="1" stroke-width="1" stroke-linecap="square" stroke-linejoin="bevel" transform="matrix(2,0,0,2,0.0024,142)"
font-family="Ubuntu" font-size="11" font-weight="400" font-style="normal" 
>
</g>

<g fill="none" stroke="#000000" stroke-opacity="1" stroke-width="1" stroke-linecap="square" stroke-linejoin="bevel" transform="matrix(2,0,0,2,0.0024,142)"
font-family="Ubuntu" font-size="11" font-weight="400" font-style="normal" 
>
</g>

<g fill="none" stroke="#000000" stroke-opacity="1" stroke-width="1" stroke-linecap="square" stroke-linejoin="round" transform="matrix(2,0,0,2,0.0024,142)"
font-family="Ubuntu" font-size="11" font-weight="400" font-style="normal" 
>
<path vector-effect="none" fill-rule="evenodd" d="M209.98,-28.739 C253.85,-33.77 305.39,-39.682 346.62,-44.41 "/>
</g>

<g fill="none" stroke="#000000" stroke-opacity="1" stroke-width="1" stroke-linecap="square" stroke-linejoin="bevel" transform="matrix(2,0,0,2,0.0024,142)"
font-family="Ubuntu" font-size="11" font-weight="400" font-style="normal" 
>
</g>

<g fill="none" stroke="#000000" stroke-opacity="1" stroke-width="1" stroke-linecap="square" stroke-linejoin="bevel" transform="matrix(2,0,0,2,483.3,27)"
font-family="Ubuntu" font-size="11" font-weight="400" font-style="normal" 
>
</g>

<g fill="none" stroke="#000000" stroke-opacity="1" stroke-width="1" stroke-linecap="square" stroke-linejoin="bevel" transform="matrix(2,0,0,2,483.3,27)"
font-family="sans" font-size="11" font-weight="100" font-style="normal" 
>
</g>

<g fill="#000000" fill-opacity="1" stroke="#000000" stroke-opacity="1" stroke-width="1" stroke-linecap="square" stroke-linejoin="round" transform="matrix(2,0,0,2,483.3,27)"
font-family="sans" font-size="11" font-weight="100" font-style="normal" 
>
<path vector-effect="none" fill-rule="nonzero" d="M2.96875,2.98438 L3.53125,2.98438 L0.734375,12.0156 L0.171875,12.0156 L2.96875,2.98438 M9.28125,6.29688 C9.46875,5.80729 9.76042,5.44271 10.1563,5.20313 C10.5417,4.96354 10.9948,4.84375 11.5156,4.84375 C12.0365,4.84375 12.4531,5.02604 12.7656,5.39063 C13.0885,5.75521 13.25,6.41667 13.25,7.375 L13.25,11 L12.7656,11 L12.7656,7.40625 C12.7656,6.57292 12.651,6.01042 12.4219,5.71875 C12.1927,5.42708 11.8854,5.28125 11.5,5.28125 C10.9479,5.28125 10.4635,5.44792 10.0469,5.78125 C9.57813,6.15625 9.34375,6.76042 9.34375,7.59375 L9.34375,11 L8.85938,11 L8.85938,7.40625 C8.85938,6.60417 8.7474,6.04948 8.52344,5.74219 C8.29948,5.4349 7.98958,5.28125 7.59375,5.28125 C7.04167,5.28125 6.55729,5.45313 6.14063,5.79688 C5.67188,6.16146 5.4375,6.76042 5.4375,7.59375 L5.4375,11 L4.95313,11 L4.95313,4.98438 L5.4375,4.98438 L5.4375,6.10938 C5.61458,5.71354 5.89063,5.40104 6.26563,5.17188 C6.63021,4.95313 7.08333,4.84375 7.625,4.84375 C7.97917,4.84375 8.31771,4.95833 8.64063,5.1875 C8.89063,5.375 9.10417,5.74479 9.28125,6.29688 M17.6875,11.5625 C17.4688,12.0938 17.2344,12.4635 16.9844,12.6719 C16.651,12.9427 16.3281,13.0781 16.0156,13.0781 L15.2813,13.0781 L15.2813,12.6563 L15.9063,12.6563 C16.1667,12.6563 16.3958,12.5729 16.5938,12.4063 C16.8438,12.1875 17.0521,11.8698 17.2188,11.4531 L17.3906,11 L15,4.98438 L15.5313,4.98438 L17.6563,10.3438 L19.7969,4.98438 L20.3281,4.98438 L17.6875,11.5625 M22.6719,3.28125 L22.6719,4.98438 L24.7031,4.98438 L24.7031,5.40625 L22.6719,5.40625 L22.6719,9.01563 C22.6719,9.47396 22.7292,9.79688 22.8438,9.98438 C23.0938,10.3802 23.4531,10.5781 23.9219,10.5781 L24.7031,10.5781 L24.7031,11 L23.9375,11 C23.4479,11 23.0313,10.8568 22.6875,10.5703 C22.3438,10.2839 22.1719,9.76563 22.1719,9.01563 L22.1719,5.40625 L21.4531,5.40625 L21.4531,4.98438 L22.1719,4.98438 L22.1719,3.28125 L22.6719,3.28125 M26.4063,8.60938 L26.4063,4.98438 L26.8906,4.98438 L26.8906,8.57813 C26.8906,9.35938 27.0156,9.90885 27.2656,10.2266 C27.5156,10.5443 27.8854,10.7031 28.375,10.7031 C28.9479,10.7031 29.4375,10.5313 29.8438,10.1875 C30.25,9.84375 30.4531,9.24479 30.4531,8.39063 L30.4531,4.98438 L30.9375,4.98438 L30.9375,11 L30.4531,11 L30.4531,9.875 C30.276,10.2396 30.0417,10.5156 29.75,10.7031 C29.3333,10.9948 28.8698,11.1406 28.3594,11.1406 C27.7656,11.1406 27.2917,10.9375 26.9375,10.5313 C26.5833,10.1354 26.4063,9.49479 26.4063,8.60938 M36.7031,5.40625 C36.6198,5.36458 36.5104,5.33333 36.375,5.3125 C36.25,5.29167 36.099,5.28125 35.9219,5.28125 C35.3073,5.28125 34.8021,5.50521 34.4063,5.95313 C34.0833,6.31771 33.9219,6.94271 33.9219,7.82813 L33.9219,11 L33.4375,11 L33.4375,4.98438 L33.9219,4.98438 L33.9219,6.10938 C34.0885,5.78646 34.3177,5.51563 34.6094,5.29688 C35.0052,4.99479 35.474,4.84375 36.0156,4.84375 C36.1615,4.84375 36.2865,4.84896 36.3906,4.85938 C36.4948,4.85938 36.599,4.86979 36.7031,4.89063 L36.7031,5.40625 M38.4688,3.28125 L38.4688,4.98438 L40.5,4.98438 L40.5,5.40625 L38.4688,5.40625 L38.4688,9.01563 C38.4688,9.47396 38.526,9.79688 38.6406,9.98438 C38.8906,10.3802 39.25,10.5781 39.7188,10.5781 L40.5,10.5781 L40.5,11 L39.7344,11 C39.2448,11 38.8281,10.8568 38.4844,10.5703 C38.1406,10.2839 37.9688,9.76563 37.9688,9.01563 L37.9688,5.40625 L37.25,5.40625 L37.25,4.98438 L37.9688,4.98438 L37.9688,3.28125 L38.4688,3.28125 M42.2656,2.64063 L42.75,2.64063 L42.75,11 L42.2656,11 L42.2656,2.64063 M50,7.75 L50,8.0625 L45.4375,8.0625 C45.4375,9.02083 45.625,9.69792 46,10.0938 C46.4167,10.5208 47.0313,10.7344 47.8438,10.7344 C48.0625,10.7344 48.349,10.6875 48.7031,10.5938 C49.0573,10.5 49.4115,10.3594 49.7656,10.1719 L49.7656,10.6875 C49.4115,10.8438 49.0495,10.9609 48.6797,11.0391 C48.3099,11.1172 48.0156,11.1563 47.7969,11.1563 C46.8698,11.1563 46.1719,10.9063 45.7031,10.4063 C45.1927,9.875 44.9375,9.09375 44.9375,8.0625 C44.9375,6.98958 45.1667,6.1875 45.625,5.65625 C46.1042,5.11458 46.7708,4.84375 47.625,4.84375 C48.4063,4.84375 49,5.10417 49.4063,5.625 C49.8021,6.16667 50,6.875 50,7.75 M49.5,7.64063 C49.5,6.79688 49.3073,6.18229 48.9219,5.79688 C48.6094,5.45313 48.1771,5.28125 47.625,5.28125 C47.0313,5.28125 46.5313,5.45833 46.125,5.8125 C45.75,6.14583 45.526,6.75521 45.4531,7.64063 L49.5,7.64063 M53.7969,2.98438 L54.3594,2.98438 L51.5625,12.0156 L51,12.0156 L53.7969,2.98438 M59.8906,5.28125 L59.8906,5.79688 C59.599,5.61979 59.3542,5.5 59.1563,5.4375 C58.8229,5.33333 58.5052,5.28125 58.2031,5.28125 C57.3385,5.28125 56.7188,5.5026 56.3438,5.94531 C55.9688,6.38802 55.7813,7.07292 55.7813,8 C55.7813,8.9375 55.9688,9.6276 56.3438,10.0703 C56.7188,10.513 57.3385,10.7344 58.2031,10.7344 C58.4948,10.7344 58.776,10.6927 59.0469,10.6094 C59.3385,10.5365 59.6198,10.4219 59.8906,10.2656 L59.8906,10.7656 C59.6198,10.901 59.3385,11 59.0469,11.0625 C58.7448,11.125 58.4479,11.1563 58.1563,11.1563 C57.2813,11.1563 56.5833,10.9167 56.0625,10.4375 C55.5417,9.95833 55.2813,9.14323 55.2813,7.99219 C55.2813,6.84115 55.5417,6.02604 56.0625,5.54688 C56.5833,5.07813 57.2813,4.84375 58.1563,4.84375 C58.4479,4.84375 58.7552,4.88542 59.0781,4.96875 C59.401,5.04167 59.6719,5.14583 59.8906,5.28125 M66.1563,6.29688 C66.3438,5.80729 66.6354,5.44271 67.0313,5.20313 C67.4167,4.96354 67.8698,4.84375 68.3906,4.84375 C68.9115,4.84375 69.3281,5.02604 69.6406,5.39063 C69.9635,5.75521 70.125,6.41667 70.125,7.375 L70.125,11 L69.6406,11 L69.6406,7.40625 C69.6406,6.57292 69.526,6.01042 69.2969,5.71875 C69.0677,5.42708 68.7604,5.28125 68.375,5.28125 C67.8229,5.28125 67.3385,5.44792 66.9219,5.78125 C66.4531,6.15625 66.2188,6.76042 66.2188,7.59375 L66.2188,11 L65.7344,11 L65.7344,7.40625 C65.7344,6.60417 65.6224,6.04948 65.3984,5.74219 C65.1745,5.4349 64.8646,5.28125 64.4688,5.28125 C63.9167,5.28125 63.4323,5.45313 63.0156,5.79688 C62.5469,6.16146 62.3125,6.76042 62.3125,7.59375 L62.3125,11 L61.8281,11 L61.8281,4.98438 L62.3125,4.98438 L62.3125,6.10938 C62.4896,5.71354 62.7656,5.40104 63.1406,5.17188 C63.5052,4.95313 63.9583,4.84375 64.5,4.84375 C64.8542,4.84375 65.1927,4.95833 65.5156,5.1875 C65.7656,5.375 65.9792,5.74479 66.1563,6.29688 M76.5313,6.35938 L76.5313,2.64063 L77,2.64063 L77,11 L76.5313,11 L76.5313,9.64063 C76.3021,10.1615 76.0521,10.5156 75.7813,10.7031 C75.3854,11.0052 75.0052,11.1563 74.6406,11.1563 C73.9323,11.1563 73.3411,10.8672 72.8672,10.2891 C72.3932,9.71094 72.1563,8.94792 72.1563,8 C72.1563,7.05208 72.3932,6.28906 72.8672,5.71094 C73.3411,5.13281 73.9323,4.84375 74.6406,4.84375 C75.0052,4.84375 75.3854,4.98958 75.7813,5.28125 C76.0521,5.47917 76.3021,5.83854 76.5313,6.35938 M73.2969,5.90625 C72.8802,6.32292 72.6719,7.02083 72.6719,8 C72.6719,8.97917 72.8802,9.67708 73.2969,10.0938 C73.7135,10.5104 74.151,10.7188 74.6094,10.7188 C75.0573,10.7188 75.4896,10.5104 75.9063,10.0938 C76.3125,9.67708 76.5156,8.97917 76.5156,8 C76.5156,7.02083 76.3125,6.32292 75.9063,5.90625 C75.4896,5.48958 75.0573,5.28125 74.6094,5.28125 C74.151,5.28125 73.7135,5.48958 73.2969,5.90625 M83.8594,13.1719 L83.8594,13.5938 L78.1406,13.5938 L78.1406,13.1719 L83.8594,13.1719 M84.4531,4.98438 L84.9688,4.98438 L87,10.4531 L89.0469,4.98438 L89.5625,4.98438 L87.3281,11 L86.6875,11 L84.4531,4.98438 M96.1875,7.75 L96.1875,8.0625 L91.625,8.0625 C91.625,9.02083 91.8125,9.69792 92.1875,10.0938 C92.6042,10.5208 93.2188,10.7344 94.0313,10.7344 C94.25,10.7344 94.5365,10.6875 94.8906,10.5938 C95.2448,10.5 95.599,10.3594 95.9531,10.1719 L95.9531,10.6875 C95.599,10.8438 95.237,10.9609 94.8672,11.0391 C94.4974,11.1172 94.2031,11.1563 93.9844,11.1563 C93.0573,11.1563 92.3594,10.9063 91.8906,10.4063 C91.3802,9.875 91.125,9.09375 91.125,8.0625 C91.125,6.98958 91.3542,6.1875 91.8125,5.65625 C92.2917,5.11458 92.9583,4.84375 93.8125,4.84375 C94.5938,4.84375 95.1875,5.10417 95.5938,5.625 C95.9896,6.16667 96.1875,6.875 96.1875,7.75 M95.6875,7.64063 C95.6875,6.79688 95.4948,6.18229 95.1094,5.79688 C94.7969,5.45313 94.3646,5.28125 93.8125,5.28125 C93.2188,5.28125 92.7188,5.45833 92.3125,5.8125 C91.9375,6.14583 91.7135,6.75521 91.6406,7.64063 L95.6875,7.64063 M98.2656,2.64063 L98.75,2.64063 L98.75,11 L98.2656,11 L98.2656,2.64063"/>
</g>

<g fill="none" stroke="#000000" stroke-opacity="1" stroke-width="1" stroke-linecap="square" stroke-linejoin="bevel" transform="matrix(2,0,0,2,483.3,27)"
font-family="sans" font-size="11" font-weight="100" font-style="normal" 
>
</g>

<g fill="none" stroke="#000000" stroke-opacity="1" stroke-width="1" stroke-linecap="square" stroke-linejoin="bevel" transform="matrix(2,0,0,2,483.3,27)"
font-family="Ubuntu" font-size="11" font-weight="400" font-style="normal" 
>
</g>

<g fill="none" stroke="#000000" stroke-opacity="1" stroke-width="1" stroke-linecap="square" stroke-linejoin="bevel" transform="matrix(2,0,0,2,0.0024,142)"
font-family="Ubuntu" font-size="11" font-weight="400" font-style="normal" 
>
</g>

<g fill="#000000" fill-opacity="1" stroke="#000000" stroke-opacity="1" stroke-width="1" stroke-linecap="square" stroke-linejoin="round" transform="matrix(2,0,0,2,0.0024,142)"
font-family="Ubuntu" font-size="11" font-weight="400" font-style="normal" 
>
<path vector-effect="none" fill-rule="evenodd" d="M346.62,-44.41 L347.02,-40.917 L356.6,-45.554 L346.22,-47.903 L346.62,-44.41"/>
</g>

<g fill="none" stroke="#000000" stroke-opacity="1" stroke-width="1" stroke-linecap="square" stroke-linejoin="bevel" transform="matrix(2,0,0,2,0.0024,142)"
font-family="Ubuntu" font-size="11" font-weight="400" font-style="normal" 
>
</g>

<g fill="none" stroke="#000000" stroke-opacity="1" stroke-width="1" stroke-linecap="square" stroke-linejoin="bevel" transform="matrix(2,0,0,2,0.0024,142)"
font-family="Ubuntu" font-size="11" font-weight="400" font-style="normal" 
>
</g>

<g fill="none" stroke="#000000" stroke-opacity="1" stroke-width="1" stroke-linecap="square" stroke-linejoin="bevel" transform="matrix(2,0,0,2,0.0024,142)"
font-family="Ubuntu" font-size="11" font-weight="400" font-style="normal" 
>
</g>

<g fill="none" stroke="#000000" stroke-opacity="1" stroke-width="1" stroke-linecap="square" stroke-linejoin="bevel" transform="matrix(2,0,0,2,0.0024,142)"
font-family="Ubuntu" font-size="11" font-weight="400" font-style="normal" 
>
</g>

<g fill="none" stroke="#000000" stroke-opacity="1" stroke-width="1" stroke-linecap="square" stroke-linejoin="round" transform="matrix(2,0,0,2,0.0024,142)"
font-family="Ubuntu" font-size="11" font-weight="400" font-style="normal" 
>
<path vector-effect="none" fill-rule="evenodd" d="M486.75,-45.917 C529.17,-41.311 585.54,-35.19 634.68,-29.854 "/>
</g>

<g fill="none" stroke="#000000" stroke-opacity="1" stroke-width="1" stroke-linecap="square" stroke-linejoin="bevel" transform="matrix(2,0,0,2,0.0024,142)"
font-family="Ubuntu" font-size="11" font-weight="400" font-style="normal" 
>
</g>

<g fill="none" stroke="#000000" stroke-opacity="1" stroke-width="1" stroke-linecap="square" stroke-linejoin="bevel" transform="matrix(2,0,0,2,999.477,25)"
font-family="Ubuntu" font-size="11" font-weight="400" font-style="normal" 
>
</g>

<g fill="none" stroke="#000000" stroke-opacity="1" stroke-width="1" stroke-linecap="square" stroke-linejoin="bevel" transform="matrix(2,0,0,2,999.477,25)"
font-family="sans" font-size="11" font-weight="100" font-style="normal" 
>
</g>

<g fill="#000000" fill-opacity="1" stroke="#000000" stroke-opacity="1" stroke-width="1" stroke-linecap="square" stroke-linejoin="round" transform="matrix(2,0,0,2,999.477,25)"
font-family="sans" font-size="11" font-weight="100" font-style="normal" 
>
<path vector-effect="none" fill-rule="nonzero" d="M2.96875,2.98438 L3.53125,2.98438 L0.734375,12.0156 L0.171875,12.0156 L2.96875,2.98438 M5.46875,3.28125 L5.46875,4.98438 L7.5,4.98438 L7.5,5.40625 L5.46875,5.40625 L5.46875,9.01563 C5.46875,9.47396 5.52604,9.79688 5.64063,9.98438 C5.89063,10.3802 6.25,10.5781 6.71875,10.5781 L7.5,10.5781 L7.5,11 L6.73438,11 C6.24479,11 5.82813,10.8568 5.48438,10.5703 C5.14063,10.2839 4.96875,9.76563 4.96875,9.01563 L4.96875,5.40625 L4.25,5.40625 L4.25,4.98438 L4.96875,4.98438 L4.96875,3.28125 L5.46875,3.28125 M9.20313,8.60938 L9.20313,4.98438 L9.6875,4.98438 L9.6875,8.57813 C9.6875,9.35938 9.8125,9.90885 10.0625,10.2266 C10.3125,10.5443 10.6823,10.7031 11.1719,10.7031 C11.7448,10.7031 12.2344,10.5313 12.6406,10.1875 C13.0469,9.84375 13.25,9.24479 13.25,8.39063 L13.25,4.98438 L13.7344,4.98438 L13.7344,11 L13.25,11 L13.25,9.875 C13.0729,10.2396 12.8385,10.5156 12.5469,10.7031 C12.1302,10.9948 11.6667,11.1406 11.1563,11.1406 C10.5625,11.1406 10.0885,10.9375 9.73438,10.5313 C9.38021,10.1354 9.20313,9.49479 9.20313,8.60938 M19.5,5.40625 C19.4167,5.36458 19.3073,5.33333 19.1719,5.3125 C19.0469,5.29167 18.8958,5.28125 18.7188,5.28125 C18.1042,5.28125 17.599,5.50521 17.2031,5.95313 C16.8802,6.31771 16.7188,6.94271 16.7188,7.82813 L16.7188,11 L16.2344,11 L16.2344,4.98438 L16.7188,4.98438 L16.7188,6.10938 C16.8854,5.78646 17.1146,5.51563 17.4063,5.29688 C17.8021,4.99479 18.2708,4.84375 18.8125,4.84375 C18.9583,4.84375 19.0833,4.84896 19.1875,4.85938 C19.2917,4.85938 19.3958,4.86979 19.5,4.89063 L19.5,5.40625 M21.2656,3.28125 L21.2656,4.98438 L23.2969,4.98438 L23.2969,5.40625 L21.2656,5.40625 L21.2656,9.01563 C21.2656,9.47396 21.3229,9.79688 21.4375,9.98438 C21.6875,10.3802 22.0469,10.5781 22.5156,10.5781 L23.2969,10.5781 L23.2969,11 L22.5313,11 C22.0417,11 21.625,10.8568 21.2813,10.5703 C20.9375,10.2839 20.7656,9.76563 20.7656,9.01563 L20.7656,5.40625 L20.0469,5.40625 L20.0469,4.98438 L20.7656,4.98438 L20.7656,3.28125 L21.2656,3.28125 M25.0625,2.64063 L25.5469,2.64063 L25.5469,11 L25.0625,11 L25.0625,2.64063 M32.7969,7.75 L32.7969,8.0625 L28.2344,8.0625 C28.2344,9.02083 28.4219,9.69792 28.7969,10.0938 C29.2135,10.5208 29.8281,10.7344 30.6406,10.7344 C30.8594,10.7344 31.1458,10.6875 31.5,10.5938 C31.8542,10.5 32.2083,10.3594 32.5625,10.1719 L32.5625,10.6875 C32.2083,10.8438 31.8464,10.9609 31.4766,11.0391 C31.1068,11.1172 30.8125,11.1563 30.5938,11.1563 C29.6667,11.1563 28.9688,10.9063 28.5,10.4063 C27.9896,9.875 27.7344,9.09375 27.7344,8.0625 C27.7344,6.98958 27.9635,6.1875 28.4219,5.65625 C28.901,5.11458 29.5677,4.84375 30.4219,4.84375 C31.2031,4.84375 31.7969,5.10417 32.2031,5.625 C32.599,6.16667 32.7969,6.875 32.7969,7.75 M32.2969,7.64063 C32.2969,6.79688 32.1042,6.18229 31.7188,5.79688 C31.4063,5.45313 30.974,5.28125 30.4219,5.28125 C29.8281,5.28125 29.3281,5.45833 28.9219,5.8125 C28.5469,6.14583 28.3229,6.75521 28.25,7.64063 L32.2969,7.64063 M35.2656,10.5625 L37.0313,10.5625 L37.0313,3.46875 L34.8281,4.35938 L34.8281,3.85938 L37.0156,2.98438 L37.5625,2.98438 L37.5625,10.5625 L39.3438,10.5625 L39.3438,11 L35.2656,11 L35.2656,10.5625 M43.5781,2.98438 L44.1406,2.98438 L41.3438,12.0156 L40.7813,12.0156 L43.5781,2.98438 M49.6719,5.28125 L49.6719,5.79688 C49.3802,5.61979 49.1354,5.5 48.9375,5.4375 C48.6042,5.33333 48.2865,5.28125 47.9844,5.28125 C47.1198,5.28125 46.5,5.5026 46.125,5.94531 C45.75,6.38802 45.5625,7.07292 45.5625,8 C45.5625,8.9375 45.75,9.6276 46.125,10.0703 C46.5,10.513 47.1198,10.7344 47.9844,10.7344 C48.276,10.7344 48.5573,10.6927 48.8281,10.6094 C49.1198,10.5365 49.401,10.4219 49.6719,10.2656 L49.6719,10.7656 C49.401,10.901 49.1198,11 48.8281,11.0625 C48.526,11.125 48.2292,11.1563 47.9375,11.1563 C47.0625,11.1563 46.3646,10.9167 45.8438,10.4375 C45.3229,9.95833 45.0625,9.14323 45.0625,7.99219 C45.0625,6.84115 45.3229,6.02604 45.8438,5.54688 C46.3646,5.07813 47.0625,4.84375 47.9375,4.84375 C48.2292,4.84375 48.5365,4.88542 48.8594,4.96875 C49.1823,5.04167 49.4531,5.14583 49.6719,5.28125 M55.1875,6.01563 C54.8333,5.52604 54.349,5.28125 53.7344,5.28125 C53.1198,5.28125 52.6354,5.52604 52.2813,6.01563 C51.9271,6.49479 51.75,7.15104 51.75,7.98438 C51.75,8.83854 51.9271,9.51042 52.2813,10 C52.6354,10.4896 53.1198,10.7344 53.7344,10.7344 C54.349,10.7344 54.8333,10.4896 55.1875,10 C55.5417,9.5 55.7188,8.82813 55.7188,7.98438 C55.7188,7.16146 55.5417,6.50521 55.1875,6.01563 M53.7344,4.84375 C54.4948,4.84375 55.099,5.13021 55.5469,5.70313 C55.9948,6.27604 56.2188,7.03646 56.2188,7.98438 C56.2188,8.97396 55.9948,9.75521 55.5469,10.3281 C55.099,10.901 54.4948,11.1875 53.7344,11.1875 C52.9531,11.1875 52.3385,10.901 51.8906,10.3281 C51.4531,9.75521 51.2344,8.97396 51.2344,7.98438 C51.2344,7.02604 51.4583,6.26302 51.9063,5.69531 C52.3542,5.1276 52.9635,4.84375 53.7344,4.84375 M58.3281,2.64063 L58.8125,2.64063 L58.8125,11 L58.3281,11 L58.3281,2.64063 M64.9531,6.01563 C64.599,5.52604 64.1146,5.28125 63.5,5.28125 C62.8854,5.28125 62.401,5.52604 62.0469,6.01563 C61.6927,6.49479 61.5156,7.15104 61.5156,7.98438 C61.5156,8.83854 61.6927,9.51042 62.0469,10 C62.401,10.4896 62.8854,10.7344 63.5,10.7344 C64.1146,10.7344 64.599,10.4896 64.9531,10 C65.3073,9.5 65.4844,8.82813 65.4844,7.98438 C65.4844,7.16146 65.3073,6.50521 64.9531,6.01563 M63.5,4.84375 C64.2604,4.84375 64.8646,5.13021 65.3125,5.70313 C65.7604,6.27604 65.9844,7.03646 65.9844,7.98438 C65.9844,8.97396 65.7604,9.75521 65.3125,10.3281 C64.8646,10.901 64.2604,11.1875 63.5,11.1875 C62.7188,11.1875 62.1042,10.901 61.6563,10.3281 C61.2188,9.75521 61,8.97396 61,7.98438 C61,7.02604 61.224,6.26302 61.6719,5.69531 C62.1198,5.1276 62.7292,4.84375 63.5,4.84375 M71.3594,5.40625 C71.276,5.36458 71.1667,5.33333 71.0313,5.3125 C70.9063,5.29167 70.7552,5.28125 70.5781,5.28125 C69.9635,5.28125 69.4583,5.50521 69.0625,5.95313 C68.7396,6.31771 68.5781,6.94271 68.5781,7.82813 L68.5781,11 L68.0938,11 L68.0938,4.98438 L68.5781,4.98438 L68.5781,6.10938 C68.7448,5.78646 68.974,5.51563 69.2656,5.29688 C69.6615,4.99479 70.1302,4.84375 70.6719,4.84375 C70.8177,4.84375 70.9427,4.84896 71.0469,4.85938 C71.151,4.85938 71.2552,4.86979 71.3594,4.89063 L71.3594,5.40625 M76.9688,13.1719 L76.9688,13.5938 L71.25,13.5938 L71.25,13.1719 L76.9688,13.1719 M81.5156,5.15625 L81.5156,5.70313 C81.1615,5.50521 80.9427,5.39583 80.8594,5.375 C80.6094,5.32292 80.2969,5.29167 79.9219,5.28125 C79.3594,5.28125 78.9167,5.39063 78.5938,5.60938 C78.3438,5.79688 78.2188,6.11458 78.2188,6.5625 C78.2188,6.875 78.3385,7.11458 78.5781,7.28125 C78.8177,7.46875 79.1667,7.61458 79.625,7.71875 L79.9688,7.78125 C80.5417,7.90625 80.974,8.08333 81.2656,8.3125 C81.6094,8.58333 81.7865,8.92708 81.7969,9.34375 C81.7969,9.90625 81.6302,10.349 81.2969,10.6719 C80.9427,10.9948 80.3646,11.1563 79.5625,11.1563 C79.125,11.1563 78.7917,11.125 78.5625,11.0625 C78.2813,10.9896 77.9896,10.8958 77.6875,10.7813 L77.6875,10.1563 C78.125,10.4063 78.4063,10.5521 78.5313,10.5938 C78.8854,10.6875 79.2396,10.7344 79.5938,10.7344 C80.1667,10.7344 80.5938,10.6146 80.875,10.375 C81.1563,10.125 81.2969,9.80729 81.2969,9.42188 C81.2969,9.08854 81.2031,8.84896 81.0156,8.70313 C80.7448,8.48438 80.3177,8.30729 79.7344,8.17188 L79.3906,8.09375 C78.8802,7.96875 78.4948,7.80208 78.2344,7.59375 C77.901,7.32292 77.7344,6.99479 77.7344,6.60938 C77.7344,5.98438 77.9349,5.53385 78.3359,5.25781 C78.737,4.98177 79.2292,4.84375 79.8125,4.84375 C80.3125,4.84375 80.6563,4.86979 80.8438,4.92188 C81.0729,4.98438 81.2969,5.0625 81.5156,5.15625 M88.5156,7.75 L88.5156,8.0625 L83.9531,8.0625 C83.9531,9.02083 84.1406,9.69792 84.5156,10.0938 C84.9323,10.5208 85.5469,10.7344 86.3594,10.7344 C86.5781,10.7344 86.8646,10.6875 87.2188,10.5938 C87.5729,10.5 87.9271,10.3594 88.2813,10.1719 L88.2813,10.6875 C87.9271,10.8438 87.5651,10.9609 87.1953,11.0391 C86.8255,11.1172 86.5313,11.1563 86.3125,11.1563 C85.3854,11.1563 84.6875,10.9063 84.2188,10.4063 C83.7083,9.875 83.4531,9.09375 83.4531,8.0625 C83.4531,6.98958 83.6823,6.1875 84.1406,5.65625 C84.6198,5.11458 85.2865,4.84375 86.1406,4.84375 C86.9219,4.84375 87.5156,5.10417 87.9219,5.625 C88.3177,6.16667 88.5156,6.875 88.5156,7.75 M88.0156,7.64063 C88.0156,6.79688 87.8229,6.18229 87.4375,5.79688 C87.125,5.45313 86.6927,5.28125 86.1406,5.28125 C85.5469,5.28125 85.0469,5.45833 84.6406,5.8125 C84.2656,6.14583 84.0417,6.75521 83.9688,7.64063 L88.0156,7.64063 M95.1406,7.375 L95.1406,11 L94.6406,11 L94.6406,7.40625 C94.6406,6.625 94.5156,6.07552 94.2656,5.75781 C94.0156,5.4401 93.6458,5.28125 93.1563,5.28125 C92.5833,5.28125 92.099,5.45313 91.7031,5.79688 C91.2865,6.14063 91.0781,6.73958 91.0781,7.59375 L91.0781,11 L90.5938,11 L90.5938,4.98438 L91.0781,4.98438 L91.0781,6.10938 C91.2552,5.74479 91.4896,5.46875 91.7813,5.28125 C92.1979,4.98958 92.6615,4.84375 93.1719,4.84375 C93.776,4.84375 94.2552,5.04688 94.6094,5.45313 C94.9635,5.84896 95.1406,6.48958 95.1406,7.375 M100.969,5.15625 L100.969,5.70313 C100.615,5.50521 100.396,5.39583 100.313,5.375 C100.063,5.32292 99.75,5.29167 99.375,5.28125 C98.8125,5.28125 98.3698,5.39063 98.0469,5.60938 C97.7969,5.79688 97.6719,6.11458 97.6719,6.5625 C97.6719,6.875 97.7917,7.11458 98.0313,7.28125 C98.2708,7.46875 98.6198,7.61458 99.0781,7.71875 L99.4219,7.78125 C99.9948,7.90625 100.427,8.08333 100.719,8.3125 C101.063,8.58333 101.24,8.92708 101.25,9.34375 C101.25,9.90625 101.083,10.349 100.75,10.6719 C100.396,10.9948 99.8177,11.1563 99.0156,11.1563 C98.5781,11.1563 98.2448,11.125 98.0156,11.0625 C97.7344,10.9896 97.4427,10.8958 97.1406,10.7813 L97.1406,10.1563 C97.5781,10.4063 97.8594,10.5521 97.9844,10.5938 C98.3385,10.6875 98.6927,10.7344 99.0469,10.7344 C99.6198,10.7344 100.047,10.6146 100.328,10.375 C100.609,10.125 100.75,9.80729 100.75,9.42188 C100.75,9.08854 100.656,8.84896 100.469,8.70313 C100.198,8.48438 99.7708,8.30729 99.1875,8.17188 L98.8438,8.09375 C98.3333,7.96875 97.9479,7.80208 97.6875,7.59375 C97.3542,7.32292 97.1875,6.99479 97.1875,6.60938 C97.1875,5.98438 97.388,5.53385 97.7891,5.25781 C98.1901,4.98177 98.6823,4.84375 99.2656,4.84375 C99.7656,4.84375 100.109,4.86979 100.297,4.92188 C100.526,4.98438 100.75,5.0625 100.969,5.15625 M106.859,6.01563 C106.505,5.52604 106.021,5.28125 105.406,5.28125 C104.792,5.28125 104.307,5.52604 103.953,6.01563 C103.599,6.49479 103.422,7.15104 103.422,7.98438 C103.422,8.83854 103.599,9.51042 103.953,10 C104.307,10.4896 104.792,10.7344 105.406,10.7344 C106.021,10.7344 106.505,10.4896 106.859,10 C107.214,9.5 107.391,8.82813 107.391,7.98438 C107.391,7.16146 107.214,6.50521 106.859,6.01563 M105.406,4.84375 C106.167,4.84375 106.771,5.13021 107.219,5.70313 C107.667,6.27604 107.891,7.03646 107.891,7.98438 C107.891,8.97396 107.667,9.75521 107.219,10.3281 C106.771,10.901 106.167,11.1875 105.406,11.1875 C104.625,11.1875 104.01,10.901 103.563,10.3281 C103.125,9.75521 102.906,8.97396 102.906,7.98438 C102.906,7.02604 103.13,6.26302 103.578,5.69531 C104.026,5.1276 104.635,4.84375 105.406,4.84375 M113.266,5.40625 C113.182,5.36458 113.073,5.33333 112.938,5.3125 C112.813,5.29167 112.661,5.28125 112.484,5.28125 C111.87,5.28125 111.365,5.50521 110.969,5.95313 C110.646,6.31771 110.484,6.94271 110.484,7.82813 L110.484,11 L110,11 L110,4.98438 L110.484,4.98438 L110.484,6.10938 C110.651,5.78646 110.88,5.51563 111.172,5.29688 C111.568,4.99479 112.036,4.84375 112.578,4.84375 C112.724,4.84375 112.849,4.84896 112.953,4.85938 C113.057,4.85938 113.161,4.86979 113.266,4.89063 L113.266,5.40625"/>
</g>

<g fill="none" stroke="#000000" stroke-opacity="1" stroke-width="1" stroke-linecap="square" stroke-linejoin="bevel" transform="matrix(2,0,0,2,999.477,25)"
font-family="sans" font-size="11" font-weight="100" font-style="normal" 
>
</g>

<g fill="none" stroke="#000000" stroke-opacity="1" stroke-width="1" stroke-linecap="square" stroke-linejoin="bevel" transform="matrix(2,0,0,2,999.477,25)"
font-family="Ubuntu" font-size="11" font-weight="400" font-style="normal" 
>
</g>

<g fill="none" stroke="#000000" stroke-opacity="1" stroke-width="1" stroke-linecap="square" stroke-linejoin="bevel" transform="matrix(2,0,0,2,0.0024,142)"
font-family="Ubuntu" font-size="11" font-weight="400" font-style="normal" 
>
</g>

<g fill="#000000" fill-opacity="1" stroke="#000000" stroke-opacity="1" stroke-width="1" stroke-linecap="square" stroke-linejoin="round" transform="matrix(2,0,0,2,0.0024,142)"
font-family="Ubuntu" font-size="11" font-weight="400" font-style="normal" 
>
<path vector-effect="none" fill-rule="evenodd" d="M634.68,-29.854 L634.298,-26.3365 L644.73,-28.763 L635.062,-33.3715 L634.68,-29.854"/>
</g>

<g fill="none" stroke="#000000" stroke-opacity="1" stroke-width="1" stroke-linecap="square" stroke-linejoin="bevel" transform="matrix(2,0,0,2,0.0024,142)"
font-family="Ubuntu" font-size="11" font-weight="400" font-style="normal" 
>
</g>

<g fill="none" stroke="#000000" stroke-opacity="1" stroke-width="1" stroke-linecap="square" stroke-linejoin="bevel" transform="matrix(1,0,0,1,0,0)"
font-family="Ubuntu" font-size="11" font-weight="400" font-style="normal" 
>
</g>
</g>
</svg>
